<svg width="1512" height="982" viewBox="0 0 1512 982" fill="none" xmlns="http://www.w3.org/2000/svg">
<path fill-rule="evenodd" clip-rule="evenodd" d="M1251.18 -124.329C1317.64 -136.256 1376.52 -82.0773 1423.72 -33.7965C1470.27 13.8225 1514.63 72.4428 1508.35 138.738C1502.37 201.846 1446.49 246.079 1393.86 281.412C1351.91 309.57 1301.57 307.713 1251.18 311.386C1194.06 315.551 1132.86 336.88 1086.07 303.851C1034.19 267.233 996.678 201.457 1006.6 138.738C1015.96 79.5328 1090.34 62.6115 1131.16 18.7128C1175.22 -28.6747 1187.5 -112.898 1251.18 -124.329Z" fill="#687BB3"/>
<path fill-rule="evenodd" clip-rule="evenodd" d="M1323.86 628.462C1383.53 601.839 1434.54 551.314 1501.22 563.875C1579.45 578.614 1662.03 622.292 1699.71 699.27C1737.25 775.944 1710.96 861.927 1684.21 937.682C1659.81 1006.78 1620.5 1067.8 1558.43 1099.37C1495.89 1131.17 1423.68 1123.79 1352.5 1106.38C1265.51 1085.1 1160.14 1075.06 1114.5 990.774C1068.41 905.657 1100.13 800.262 1144.83 722.898C1181.04 660.231 1259.8 657.047 1323.86 628.462Z" fill="#274292"/>
<path fill-rule="evenodd" clip-rule="evenodd" d="M717.373 253.736C773.752 255.383 835.63 240.888 878.367 277.694C922.935 316.076 937.47 380.114 932.133 438.688C927.212 492.692 891.683 536.403 851.478 572.793C813.705 606.983 768.205 629.623 717.373 633.072C662.423 636.8 603.458 630.477 563.748 592.313C523.488 553.621 518.046 494.45 515.112 438.688C511.953 378.622 502.3 308.594 546.689 268.003C590.489 227.951 658.046 252.002 717.373 253.736Z" fill="#274292"/>
<path fill-rule="evenodd" clip-rule="evenodd" d="M1421.81 179.501C1450.86 180.349 1482.74 172.881 1504.76 191.844C1527.72 211.619 1535.21 244.613 1532.46 274.791C1529.92 302.614 1511.62 325.135 1490.9 343.883C1471.44 361.498 1448 373.163 1421.81 374.94C1393.5 376.86 1363.12 373.603 1342.66 353.941C1321.92 334.006 1319.11 303.52 1317.6 274.791C1315.98 243.844 1311 207.764 1333.87 186.852C1356.44 166.216 1391.25 178.608 1421.81 179.501Z" fill="#274292"/>
<path fill-rule="evenodd" clip-rule="evenodd" d="M151.307 71.0586C178.222 48.4033 213.623 43.393 248.797 42.7236C280.998 42.1108 314.821 45.535 338.377 67.4986C361.085 88.6717 360.217 122.154 366.577 152.543C374.477 190.289 398.691 229.757 379.316 263.101C358.574 298.8 313.355 313.04 272.12 315.109C232.251 317.109 196.28 298.102 164.554 273.875C130.751 248.062 92.9921 218.647 90.2201 176.205C87.4737 134.156 119.069 98.1946 151.307 71.0586Z" fill="#274292"/>
<path fill-rule="evenodd" clip-rule="evenodd" d="M640.083 710.252C672.101 779.09 730.546 838.126 718.974 914.788C705.393 1004.75 659.589 1099.52 574.844 1142.42C490.434 1185.15 393.228 1154.36 307.451 1123.1C229.211 1094.59 159.459 1048.97 121.815 977.322C83.8931 905.146 89.464 822.078 106.299 740.253C126.872 640.259 134.181 519.045 226.805 467.032C320.346 414.505 439.479 451.667 527.726 503.602C599.207 545.67 605.706 636.341 640.083 710.252Z" fill="#687BB3"/>
<path fill-rule="evenodd" clip-rule="evenodd" d="M7.30729 707.059C34.2219 684.403 69.6232 679.393 104.797 678.724C136.998 678.111 170.821 681.535 194.377 703.499C217.085 724.672 216.217 758.154 222.577 788.543C230.477 826.289 254.691 865.757 235.316 899.101C214.574 934.8 169.355 949.04 128.12 951.109C88.2512 953.109 52.2802 934.102 20.5541 909.875C-13.2491 884.062 -51.0079 854.647 -53.7799 812.205C-56.5263 770.156 -24.9305 734.195 7.30729 707.059Z" fill="#274292"/>
</svg>
