<svg width="1512" height="982" viewBox="0 0 1512 982" fill="none" xmlns="http://www.w3.org/2000/svg">
<g clip-path="url(#clip0_47_470)">
<path fill-rule="evenodd" clip-rule="evenodd" d="M1337.18 -104.329C1403.64 -116.256 1462.52 -62.0773 1509.72 -13.7965C1556.27 33.8225 1600.63 92.4428 1594.35 158.738C1588.37 221.846 1532.49 266.079 1479.86 301.412C1437.91 329.57 1387.57 327.713 1337.18 331.386C1280.06 335.551 1218.86 356.88 1172.07 323.851C1120.19 287.233 1082.68 221.457 1092.6 158.738C1101.96 99.5328 1176.34 82.6115 1217.16 38.7128C1261.22 -8.67467 1273.5 -92.898 1337.18 -104.329Z" fill="#687BB3"/>
<path fill-rule="evenodd" clip-rule="evenodd" d="M717.374 253.736C773.752 255.383 835.63 240.888 878.368 277.694C922.935 316.076 937.47 380.114 932.133 438.688C927.212 492.692 891.683 536.403 851.479 572.793C813.705 606.983 768.206 629.623 717.374 633.072C662.424 636.8 603.459 630.477 563.748 592.313C523.488 553.621 518.046 494.45 515.113 438.688C511.953 378.622 502.3 308.594 546.689 268.003C590.49 227.951 658.047 252.002 717.374 253.736Z" fill="#274292"/>
<path fill-rule="evenodd" clip-rule="evenodd" d="M1421.81 179.501C1450.86 180.349 1482.74 172.881 1504.76 191.844C1527.72 211.619 1535.21 244.613 1532.46 274.791C1529.92 302.614 1511.62 325.135 1490.9 343.883C1471.44 361.498 1448 373.163 1421.81 374.94C1393.5 376.86 1363.12 373.603 1342.66 353.941C1321.92 334.006 1319.11 303.52 1317.6 274.791C1315.98 243.844 1311 207.764 1333.87 186.852C1356.44 166.216 1391.25 178.608 1421.81 179.501Z" fill="#274292"/>
<path fill-rule="evenodd" clip-rule="evenodd" d="M982.307 -22.9417C1009.22 -45.5969 1044.62 -50.6073 1079.8 -51.2766C1112 -51.8894 1145.82 -48.4652 1169.38 -26.5016C1192.09 -5.32854 1191.22 28.1533 1197.58 58.5424C1205.48 96.2891 1229.69 135.757 1210.32 169.101C1189.57 204.799 1144.35 219.04 1103.12 221.108C1063.25 223.108 1027.28 204.102 995.554 179.875C961.751 154.062 923.992 124.646 921.22 82.2048C918.474 40.1561 950.069 4.19431 982.307 -22.9417Z" fill="#274292"/>
<path fill-rule="evenodd" clip-rule="evenodd" d="M778.307 699.059C805.222 676.403 840.623 671.393 875.797 670.724C907.998 670.111 941.821 673.535 965.377 695.499C988.085 716.672 987.217 750.154 993.577 780.543C1001.48 818.289 1025.69 857.757 1006.32 891.101C985.574 926.8 940.355 941.04 899.12 943.109C859.251 945.109 823.28 926.102 791.554 901.875C757.751 876.062 719.992 846.647 717.22 804.205C714.474 762.156 746.069 726.195 778.307 699.059Z" fill="#274292"/>
<path fill-rule="evenodd" clip-rule="evenodd" d="M1553.08 720.252C1585.1 789.09 1643.55 848.126 1631.97 924.788C1618.39 1014.75 1572.59 1109.52 1487.84 1152.42C1403.43 1195.15 1306.23 1164.36 1220.45 1133.1C1142.21 1104.59 1072.46 1058.97 1034.82 987.322C996.893 915.146 1002.46 832.078 1019.3 750.253C1039.87 650.259 1047.18 529.045 1139.81 477.032C1233.35 424.505 1352.48 461.667 1440.73 513.602C1512.21 555.67 1518.71 646.341 1553.08 720.252Z" fill="#687BB3"/>
</g>
<defs>
<clipPath id="clip0_47_470">
<rect width="1512" height="982" fill="white"/>
</clipPath>
</defs>
</svg>
