<svg width="1512" height="982" viewBox="0 0 1512 982" fill="none" xmlns="http://www.w3.org/2000/svg">
<g clip-path="url(#clip0_47_478)">
<g filter="url(#filter0_f_47_478)">
<path fill-rule="evenodd" clip-rule="evenodd" d="M815.827 792.268C849.665 782.643 884.008 792.591 916.362 806.405C945.982 819.052 975.426 836.045 987.903 865.737C999.931 894.36 985.409 924.541 978.747 954.866C970.473 992.532 976.371 1038.46 945.027 1060.92C911.469 1084.98 864.387 1079.42 825.931 1064.4C788.749 1049.87 763.736 1017.79 744.736 982.679C724.491 945.274 702.117 902.961 716.993 863.115C731.732 823.639 775.297 803.797 815.827 792.268Z" fill="#687BB3"/>
<path fill-rule="evenodd" clip-rule="evenodd" d="M172.172 164.872C150.178 101.037 194.67 34.5321 235.128 -19.5217C275.031 -72.8347 326.142 -125.674 392.616 -129.651C455.893 -133.437 508.185 -85.01 551.182 -38.432C585.45 -1.31165 591.347 48.7213 602.716 97.9442C615.606 153.75 646.082 210.945 620.632 262.254C592.417 319.14 533.185 366.315 469.687 366.149C409.746 365.993 381.6 295.089 331.953 261.501C278.36 225.244 193.25 226.048 172.172 164.872Z" fill="#687BB3"/>
<path fill-rule="evenodd" clip-rule="evenodd" d="M608.498 796.876C707.385 866.339 834.301 902.321 880.244 1015.63C934.157 1148.61 948.152 1312.67 867.496 1435.66C787.158 1558.17 630.291 1590.2 488.577 1612.89C359.315 1633.58 227.826 1624.5 119.034 1555.49C9.43766 1485.97 -49.8143 1368.49 -92.7592 1244.14C-145.24 1092.16 -232.816 921.364 -148.786 779.95C-63.9228 637.135 127.87 597.099 289.572 600.714C420.553 603.641 502.324 722.293 608.498 796.876Z" fill="#274292"/>
<path fill-rule="evenodd" clip-rule="evenodd" d="M652.374 -47.2642C708.752 -45.617 770.63 -60.1121 813.368 -23.306C857.935 15.0758 872.47 79.114 867.133 137.688C862.212 191.692 826.683 235.403 786.479 271.793C748.705 305.983 703.206 328.623 652.374 332.072C597.424 335.8 538.459 329.477 498.748 291.313C458.488 252.621 453.046 193.45 450.113 137.688C446.953 77.6215 437.3 7.59386 481.689 -32.9966C525.49 -73.0489 593.047 -48.9975 652.374 -47.2642Z" fill="#274292"/>
<path fill-rule="evenodd" clip-rule="evenodd" d="M-55.6927 -127.942C-28.7781 -150.597 6.62323 -155.607 41.7972 -156.277C73.9981 -156.889 107.821 -153.465 131.377 -131.502C154.085 -110.329 153.217 -76.8467 159.577 -46.4576C167.477 -8.71095 191.691 30.7567 172.316 64.1012C151.574 99.7994 106.355 114.04 65.1196 116.108C25.2512 118.108 -10.7198 99.1021 -42.4459 74.8751C-76.2491 49.062 -114.008 19.6464 -116.78 -22.7952C-119.526 -64.8439 -87.9305 -100.806 -55.6927 -127.942Z" fill="#274292"/>
<path fill-rule="evenodd" clip-rule="evenodd" d="M817.827 444.268C851.665 434.643 886.008 444.591 918.362 458.405C947.982 471.052 977.426 488.045 989.903 517.737C1001.93 546.36 987.409 576.541 980.747 606.866C972.473 644.532 978.371 690.458 947.027 712.924C913.469 736.977 866.387 731.42 827.931 716.397C790.749 701.872 765.736 669.785 746.736 634.679C726.491 597.274 704.117 554.961 718.993 515.115C733.732 475.639 777.297 455.797 817.827 444.268Z" fill="#274292"/>
<path fill-rule="evenodd" clip-rule="evenodd" d="M165.595 279.311C194.018 299.835 232.196 311.915 238.513 350.258C245.1 390.243 225.182 436.298 197.338 471.989C171.666 504.894 134.588 520.635 98.2307 530.07C64.0713 538.934 30.8671 537.73 3.12737 522.386C-26.8596 505.799 -54.6164 481.385 -58.7877 443.217C-63.0167 404.521 -40.4856 364.725 -18.1186 327.98C5.97525 288.399 30.9804 240.193 71.2991 229.511C111.083 218.972 135.686 257.713 165.595 279.311Z" fill="#274292"/>
</g>
</g>
<defs>
<filter id="filter0_f_47_478" x="-208.661" y="-181.341" width="1228.18" height="1829" filterUnits="userSpaceOnUse" color-interpolation-filters="sRGB">
<feFlood flood-opacity="0" result="BackgroundImageFix"/>
<feBlend mode="normal" in="SourceGraphic" in2="BackgroundImageFix" result="shape"/>
<feGaussianBlur stdDeviation="12.5" result="effect1_foregroundBlur_47_478"/>
</filter>
<clipPath id="clip0_47_478">
<rect width="1512" height="982" fill="white"/>
</clipPath>
</defs>
</svg>
