<?xml version="1.0" encoding="UTF-8" standalone="no"?>
<!DOCTYPE svg PUBLIC "-//W3C//DTD SVG 1.1//EN" "http://www.w3.org/Graphics/SVG/1.1/DTD/svg11.dtd">
<svg xmlns="http://www.w3.org/2000/svg" version="1.1" viewBox="0.00 0.00 256.00 256.00">
<g stroke-width="2.00" fill="none" stroke-linecap="butt">
<path stroke="#f4c693" vector-effect="non-scaling-stroke" d="
  M 47.22 209.41
  Q 43.14 210.54 39.61 212.10
  Q 37.05 213.23 35.64 215.31
  A 1.58 1.58 0.0 0 0 35.87 217.35
  C 39.87 221.07 45.69 222.85 50.88 224.08
  Q 73.44 229.45 96.34 230.78
  C 128.18 232.64 159.94 231.77 189.96 227.20
  Q 199.09 225.82 207.82 223.34
  C 211.48 222.31 217.73 220.36 219.85 217.35
  C 220.73 216.11 219.96 214.62 218.88 213.86
  Q 214.34 210.67 207.91 209.58"
/>
<path stroke="#858181" vector-effect="non-scaling-stroke" d="
  M 207.91 209.58
  C 221.93 193.50 228.50 173.58 229.71 152.54
  C 231.17 127.38 227.39 104.99 214.69 83.43
  Q 214.42 82.96 214.67 82.47
  C 215.25 81.34 216.14 80.35 216.72 79.20
  Q 220.95 70.83 219.60 62.42
  C 216.97 46.02 202.89 35.95 186.52 36.75
  Q 175.21 37.30 165.41 45.37
  Q 164.96 45.74 164.47 45.43
  Q 160.90 43.14 157.08 41.85
  Q 154.52 40.98 157.17 40.47
  Q 160.48 39.83 160.55 37.39
  Q 160.58 36.38 159.67 35.88
  C 156.65 34.20 149.71 35.13 146.85 35.92
  Q 146.21 36.10 146.50 35.49
  L 147.14 34.13
  A 1.10 1.09 23.0 0 0 146.53 32.64
  C 142.88 31.28 133.12 35.53 129.39 37.30
  Q 128.67 37.63 128.80 36.86
  Q 128.95 35.97 128.51 35.19
  Q 128.26 34.74 127.75 34.67
  C 123.38 34.07 117.10 36.51 113.18 38.29
  Q 112.10 38.79 112.73 37.78
  L 116.44 31.82
  A 2.11 2.11 0.0 0 0 115.67 28.85
  Q 114.17 28.03 112.54 28.94
  Q 100.76 35.51 90.61 45.92
  A 1.03 1.03 0.0 0 1 89.18 45.97
  Q 80.51 38.28 70.06 36.73
  C 51.56 34.00 34.95 45.62 32.75 64.53
  C 31.85 72.27 35.04 81.07 41.27 85.89
  Q 41.83 86.32 41.49 86.95
  C 34.79 98.90 30.06 110.80 28.02 124.39
  C 23.76 152.80 27.88 187.10 47.22 209.41"
/>
<path stroke="#794715" vector-effect="non-scaling-stroke" d="
  M 207.91 209.58
  Q 198.67 219.90 184.00 222.78
  Q 168.88 225.74 153.49 226.84
  Q 118.30 229.35 83.30 225.15
  C 78.56 224.58 73.89 223.52 69.25 222.44
  Q 55.94 219.34 47.22 209.41"
/>
<path stroke="#853b01" vector-effect="non-scaling-stroke" d="
  M 59.74 40.45
  C 46.12 42.97 35.25 54.67 36.55 68.83
  Q 37.89 83.41 52.94 88.36
  A 1.35 1.35 0.0 0 0 54.55 87.70
  L 54.79 87.25
  Q 55.25 86.38 54.30 86.09
  C 42.97 82.70 37.04 72.51 39.62 61.09
  Q 42.27 49.41 53.07 44.60
  C 55.23 43.64 57.51 43.36 59.77 42.76"
/>
<path stroke="#855d1a" vector-effect="non-scaling-stroke" d="
  M 59.77 42.76
  Q 61.81 42.70 64.00 42.68
  Q 77.35 42.55 83.54 53.81
  A 0.90 0.89 59.3 0 1 83.24 55.00
  L 74.88 60.37"
/>
<path stroke="#853b01" vector-effect="non-scaling-stroke" d="
  M 74.88 60.37
  Q 65.36 68.28 60.13 79.83
  Q 57.37 85.93 54.99 92.19
  C 53.82 95.27 52.53 97.59 50.13 99.39
  Q 48.48 100.62 49.43 98.80
  C 50.81 96.14 52.20 93.88 52.97 90.92
  Q 53.11 90.39 52.61 90.17
  Q 51.76 89.79 50.84 89.91
  Q 50.29 89.98 50.01 90.44
  Q 41.43 104.52 38.22 121.50
  A 0.42 0.41 3.2 0 0 38.66 121.99
  L 47.41 121.37"
/>
<path stroke="#855d1a" vector-effect="non-scaling-stroke" d="
  M 47.41 121.37
  C 59.80 120.59 72.25 122.23 83.86 126.57
  Q 86.38 127.51 87.63 129.25
  A 1.00 1.00 0.0 0 1 86.72 130.82
  Q 65.96 128.92 46.66 133.02"
/>
<path stroke="#248181" vector-effect="non-scaling-stroke" d="
  M 46.66 133.02
  L 44.68 133.71
  Q 44.17 133.89 44.05 134.42
  L 42.69 140.48
  Q 42.55 141.08 43.14 140.87
  L 48.00 139.12"
/>
<path stroke="#855d1a" vector-effect="non-scaling-stroke" d="
  M 48.00 139.12
  Q 70.15 132.33 93.48 132.28"
/>
<path stroke="#858181" vector-effect="non-scaling-stroke" d="
  M 93.48 132.28
  L 93.42 133.70"
/>
<path stroke="#855d1a" vector-effect="non-scaling-stroke" d="
  M 93.42 133.70
  L 93.24 133.93
  Q 93.03 134.19 92.70 134.18
  Q 70.00 133.98 48.51 141.01"
/>
<path stroke="#248181" vector-effect="non-scaling-stroke" d="
  M 48.51 141.01
  L 36.33 145.98
  Q 35.74 146.23 35.75 146.87
  Q 35.77 147.84 35.73 148.92
  Q 35.65 151.51 37.41 152.59
  Q 45.35 157.46 54.52 159.35"
/>
<path stroke="#858181" vector-effect="non-scaling-stroke" d="
  M 54.52 159.35
  L 75.94 163.10
  Q 76.55 163.21 76.52 162.59
  Q 76.25 156.52 81.34 154.03
  C 86.97 151.28 93.14 155.88 92.47 162.00
  Q 92.39 162.68 93.07 162.75
  C 115.87 165.21 138.61 165.05 161.50 164.99
  Q 170.32 164.97 188.47 167.27"
/>
<path stroke="#248181" vector-effect="non-scaling-stroke" d="
  M 188.47 167.27
  L 197.38 168.78
  A 0.49 0.48 7.3 0 0 197.94 168.35
  Q 199.52 152.56 198.84 137.53
  Q 198.81 137.01 198.32 136.87
  L 196.29 136.30"
/>
<path stroke="#855d1a" vector-effect="non-scaling-stroke" d="
  M 196.29 136.30
  Q 174.43 132.23 152.63 134.37
  A 0.80 0.80 0.0 0 1 151.78 133.80
  Q 151.68 133.45 151.75 133.12
  Q 151.96 132.07 153.03 132.06
  Q 161.53 132.01 170.00 131.86
  Q 180.52 131.67 196.14 134.37"
/>
<path stroke="#853b01" vector-effect="non-scaling-stroke" d="
  M 196.14 134.37
  L 198.30 134.96
  A 0.45 0.45 0.0 0 0 198.87 134.47
  L 197.95 126.92
  Q 197.88 126.33 197.30 126.29
  L 195.03 126.14"
/>
<path stroke="#855d1a" vector-effect="non-scaling-stroke" d="
  M 195.03 126.14
  Q 183.05 125.79 171.25 127.60
  Q 165.11 128.54 158.93 130.96
  A 0.61 0.61 0.0 0 1 158.14 130.62
  L 158.02 130.32
  Q 157.67 129.45 158.48 128.98
  Q 159.52 128.39 160.54 128.11
  Q 177.03 123.69 194.33 124.30"
/>
<path stroke="#853b01" vector-effect="non-scaling-stroke" d="
  M 194.33 124.30
  L 197.11 124.25
  Q 197.62 124.24 197.53 123.74
  Q 194.72 107.74 188.47 85.02
  Q 183.66 67.51 170.85 56.77"
/>
<path stroke="#855d1a" vector-effect="non-scaling-stroke" d="
  M 170.85 56.77
  Q 169.81 56.30 169.43 55.28
  Q 169.25 54.80 169.50 54.35
  Q 177.20 40.22 194.06 43.18"
/>
<path stroke="#853b01" vector-effect="non-scaling-stroke" d="
  M 194.06 43.18
  C 204.93 45.36 212.57 53.57 213.21 64.56
  C 213.95 77.22 204.49 86.87 192.03 87.27
  A 0.44 0.44 0.0 0 0 191.62 87.79
  L 191.82 88.69
  A 0.64 0.64 0.0 0 0 192.47 89.20
  Q 203.76 88.89 210.33 81.74
  C 215.36 76.26 217.37 68.15 215.64 61.24
  Q 211.82 46.01 195.93 41.17"
/>
<path stroke="#855d1a" vector-effect="non-scaling-stroke" d="
  M 195.93 41.17
  Q 182.10 38.04 170.63 46.48
  Q 168.20 48.26 165.74 50.41
  Q 165.33 50.76 164.90 50.44
  Q 157.06 44.49 147.93 42.85
  Q 146.56 42.60 147.75 41.88
  Q 150.65 40.12 154.09 38.83
  Q 154.26 38.77 154.29 38.59
  Q 154.30 38.53 154.28 38.49
  Q 154.17 38.26 153.92 38.28
  Q 146.28 38.85 138.69 41.63
  Q 135.73 42.70 137.95 40.47
  L 140.96 37.44
  Q 142.54 35.85 140.43 36.62
  Q 129.80 40.50 119.99 45.45
  Q 117.32 46.79 119.31 44.56
  L 124.13 39.17
  Q 125.38 37.77 123.58 38.29
  Q 111.05 41.91 101.56 50.21
  A 0.26 0.25 -17.9 0 1 101.14 50.00
  Q 101.18 49.65 101.36 49.35
  Q 105.54 42.67 110.65 34.99
  Q 111.32 33.99 110.14 34.20
  Q 109.82 34.26 109.62 34.42
  Q 99.01 42.46 90.03 51.46
  A 0.78 0.78 0.0 0 1 88.90 51.43
  C 81.06 42.80 71.54 38.45 59.74 40.45"
/>
<path stroke="#ff9519" vector-effect="non-scaling-stroke" d="
  M 195.93 41.17
  Q 196.27 41.90 196.31 42.33
  Q 196.35 42.89 195.80 42.84
  Q 194.69 42.74 194.06 43.18"
/>
<path stroke="#ff9519" vector-effect="non-scaling-stroke" d="
  M 170.85 56.77
  Q 174.32 64.46 178.72 71.01
  Q 180.28 73.34 183.30 81.40
  Q 185.16 86.38 186.68 92.23
  Q 190.80 108.07 194.33 124.30"
/>
<path stroke="#ff9519" vector-effect="non-scaling-stroke" d="
  M 195.03 126.14
  Q 194.71 130.43 196.14 134.37"
/>
<path stroke="#9edb98" vector-effect="non-scaling-stroke" d="
  M 196.29 136.30
  L 192.59 155.50"
/>
<path stroke="#ffdb98" vector-effect="non-scaling-stroke" d="
  M 192.59 155.50
  Q 191.15 154.57 189.93 153.61
  C 180.25 145.96 168.49 141.74 156.83 138.21
  C 152.44 136.87 149.08 135.03 151.65 129.91
  Q 153.59 126.06 158.57 123.31"
/>
<path stroke="#855d1a" vector-effect="non-scaling-stroke" d="
  M 158.57 123.31
  Q 169.46 122.10 171.66 111.87"
/>
<path stroke="#ffdb98" vector-effect="non-scaling-stroke" d="
  M 171.66 111.87
  L 179.61 109.05
  A 0.71 0.70 71.0 0 0 180.04 108.16
  Q 177.35 100.17 173.16 93.69
  Q 167.94 85.62 162.59 81.09
  Q 145.53 66.65 123.73 66.98
  Q 85.04 67.58 67.69 102.45
  Q 66.37 105.10 65.46 108.03
  A 1.04 1.04 0.0 0 0 66.09 109.31
  L 73.29 112.02"
/>
<path stroke="#855d1a" vector-effect="non-scaling-stroke" d="
  M 73.29 112.02
  Q 76.00 122.91 87.53 123.03"
/>
<path stroke="#ffdb98" vector-effect="non-scaling-stroke" d="
  M 87.53 123.03
  Q 92.06 126.33 93.57 130.74
  Q 93.99 131.98 93.48 132.28"
/>
<path stroke="#9edb98" vector-effect="non-scaling-stroke" d="
  M 48.00 139.12
  L 46.66 133.02"
/>
<path stroke="#ff9519" vector-effect="non-scaling-stroke" d="
  M 47.41 121.37
  Q 47.94 118.24 49.43 114.15
  Q 53.50 102.93 57.42 92.80
  Q 60.52 84.77 63.22 79.64
  Q 68.31 69.93 75.27 62.34
  Q 75.63 61.94 75.40 61.45
  L 74.88 60.37"
/>
<path stroke="#ff9519" vector-effect="non-scaling-stroke" d="
  M 59.77 42.76
  Q 58.78 42.13 58.75 41.50
  Q 58.73 41.00 59.74 40.45"
/>
<path stroke="#858181" vector-effect="non-scaling-stroke" d="
  M 171.66 111.87
  Q 172.32 104.27 167.76 99.25
  C 162.10 93.01 153.21 93.86 148.52 100.75
  Q 144.48 106.69 146.71 113.73
  Q 149.34 122.07 158.57 123.31"
/>
<path stroke="#9effff" vector-effect="non-scaling-stroke" d="
  M 192.59 155.50
  L 188.47 167.27"
/>
<path stroke="#9effff" vector-effect="non-scaling-stroke" d="
  M 54.52 159.35
  C 54.85 157.21 53.13 155.13 52.23 153.34"
/>
<path stroke="#ffdb98" vector-effect="non-scaling-stroke" d="
  M 52.23 153.34
  Q 55.60 151.40 58.87 149.44
  Q 68.92 143.41 79.29 140.47
  Q 84.52 138.98 89.44 137.54
  Q 91.55 136.92 93.22 134.96
  Q 93.47 134.67 93.49 134.38
  Q 93.53 134.03 93.42 133.70"
/>
<path stroke="#858181" vector-effect="non-scaling-stroke" d="
  M 87.53 123.03
  C 97.19 121.33 101.38 111.44 97.93 102.99
  C 94.46 94.50 83.76 92.31 77.30 99.12
  Q 72.65 104.03 73.29 112.02"
/>
<path stroke="#9edb98" vector-effect="non-scaling-stroke" d="
  M 52.23 153.34
  L 48.51 141.01"
/>
<path stroke="#858181" vector-effect="non-scaling-stroke" d="
  M 55.98 49.30
  C 62.67 49.75 67.88 56.26 69.04 62.24
  Q 69.19 63.03 69.72 62.42
  C 72.44 59.27 76.58 56.52 80.24 54.53
  A 0.68 0.68 0.0 0 0 80.51 53.60
  C 75.45 44.56 63.81 41.70 55.70 48.45
  A 0.48 0.48 0.0 0 0 55.98 49.30"
/>
<path stroke="#858181" vector-effect="non-scaling-stroke" d="
  M 195.98 49.28
  A 0.37 0.37 0.0 0 0 196.19 48.67
  C 191.98 44.02 184.73 44.10 179.37 46.83
  Q 174.71 49.20 171.80 54.47
  A 0.82 0.81 -57.7 0 0 172.03 55.52
  Q 176.58 58.90 180.09 63.62
  Q 180.57 64.25 180.74 63.48
  Q 183.45 51.40 195.98 49.28"
/>
<path stroke="#85453d" vector-effect="non-scaling-stroke" d="
  M 197.86 51.02
  Q 197.68 51.16 197.50 51.30"
/>
<path stroke="#842b25" vector-effect="non-scaling-stroke" d="
  M 197.50 51.30
  C 189.32 51.61 183.10 57.64 182.45 65.77
  Q 182.41 66.30 182.68 66.75
  Q 187.98 75.62 190.88 85.44
  Q 191.04 85.98 191.59 85.91
  L 196.85 85.29"
/>
<path stroke="#85453d" vector-effect="non-scaling-stroke" d="
  M 196.85 85.29
  Q 204.88 83.12 208.67 76.94
  Q 215.12 66.40 209.18 55.79"
/>
<path stroke="#842b25" vector-effect="non-scaling-stroke" d="
  M 209.18 55.79
  C 207.34 50.53 201.54 46.99 196.40 45.47
  Q 195.48 45.20 196.08 45.94
  Q 196.74 46.76 197.45 47.53
  Q 199.27 49.50 197.86 51.02"
/>
<path stroke="#ff6e60" vector-effect="non-scaling-stroke" d="
  M 209.18 55.79
  Q 203.14 51.61 197.86 51.02"
/>
<path stroke="#ff6e60" vector-effect="non-scaling-stroke" d="
  M 197.50 51.30
  C 194.69 55.00 190.31 54.90 187.40 57.84
  A 0.52 0.52 0.0 0 0 187.56 58.68
  C 193.25 61.14 197.83 68.62 198.80 74.50
  Q 199.69 79.82 196.85 85.29"
/>
<path stroke="#85453d" vector-effect="non-scaling-stroke" d="
  M 43.85 54.35
  Q 39.38 61.22 40.53 69.00
  Q 42.11 79.62 52.53 84.34"
/>
<path stroke="#842b25" vector-effect="non-scaling-stroke" d="
  M 52.53 84.34
  Q 53.38 85.00 54.74 85.28
  Q 55.32 85.40 55.52 84.85
  Q 59.29 74.32 66.28 65.76
  C 66.89 65.02 67.46 63.86 67.21 62.89
  Q 64.65 52.75 54.41 50.85
  Q 53.48 50.68 53.40 49.75
  Q 53.26 48.20 54.90 46.70
  Q 56.10 45.59 54.51 45.98
  Q 47.79 47.63 43.85 54.35"
/>
<path stroke="#ff6e60" vector-effect="non-scaling-stroke" d="
  M 52.53 84.34
  Q 53.33 84.57 53.64 83.98
  Q 53.89 83.50 53.70 82.97
  C 53.33 81.97 52.82 80.91 52.70 79.85
  C 51.71 71.26 54.81 61.99 62.68 57.74
  A 0.68 0.68 0.0 0 0 62.57 56.49
  Q 57.63 54.82 52.94 51.86
  Q 52.51 51.59 52.02 51.65
  Q 47.84 52.18 43.85 54.35"
/>
<path stroke="#4d1f02" vector-effect="non-scaling-stroke" d="
  M 219.59 184.11
  C 219.92 183.19 220.65 182.44 220.94 181.53
  Q 223.47 173.36 224.87 165.83
  Q 226.84 155.21 226.67 139.61
  Q 226.36 111.13 212.21 86.00
  Q 211.44 84.64 210.15 85.52
  L 209.64 85.87
  Q 208.17 86.87 209.05 88.41
  Q 216.52 101.61 219.47 115.55
  C 224.82 140.85 223.73 169.76 211.27 192.81
  Q 205.64 203.22 198.54 208.88
  C 196.80 210.26 195.42 212.16 194.36 214.10
  Q 193.68 215.37 195.03 214.88
  C 200.04 213.06 204.08 208.49 207.63 204.45
  Q 209.05 202.83 210.19 200.97
  Q 211.22 199.28 212.39 197.64
  Q 217.02 191.20 219.59 184.11"
/>
<path stroke="#4d1f02" vector-effect="non-scaling-stroke" d="
  M 47.21 88.77
  L 46.36 88.43
  Q 45.06 87.91 44.35 89.11
  Q 35.06 104.83 31.89 122.46
  Q 31.64 123.87 33.03 123.49
  L 34.85 122.99
  Q 36.22 122.62 36.49 121.22
  Q 39.54 105.57 47.83 90.51
  Q 48.51 89.29 47.21 88.77"
/>
<path stroke="#857001" vector-effect="non-scaling-stroke" d="
  M 209.65 139.74
  Q 209.34 139.82 209.01 139.81
  Q 208.35 139.79 208.39 140.45
  Q 209.50 160.45 205.99 181.63
  Q 203.98 193.78 199.55 204.85
  A 0.43 0.43 0.0 0 0 199.80 205.42
  Q 200.05 205.50 200.24 205.31
  C 209.47 195.77 215.69 181.68 218.23 169.26
  C 223.15 145.27 221.05 118.37 211.16 95.98
  Q 209.40 92.00 207.07 88.65
  Q 206.77 88.21 206.27 88.38
  L 201.11 90.09
  A 0.88 0.87 -17.3 0 0 200.55 91.15
  Q 204.82 106.43 206.85 122.28
  Q 206.97 123.27 207.33 124.21
  C 207.89 125.73 207.43 127.27 207.60 128.84
  Q 208.04 132.98 208.26 137.04
  A 1.17 1.16 -75.9 0 0 208.82 137.98
  L 209.83 138.60
  Q 211.10 139.38 209.65 139.74"
/>
<path stroke="#4d1f02" vector-effect="non-scaling-stroke" d="
  M 192.70 92.09
  C 195.43 102.39 197.68 113.07 199.36 123.49
  Q 199.51 124.36 200.38 124.44
  L 204.79 124.83
  A 0.74 0.74 0.0 0 0 205.58 123.98
  Q 203.07 106.77 198.75 91.13
  Q 198.59 90.54 198.00 90.63
  L 193.20 91.33
  Q 192.52 91.43 192.70 92.09"
/>
<path stroke="#853b01" vector-effect="non-scaling-stroke" d="
  M 46.80 123.32
  L 37.85 124.13
  A 0.35 0.34 0.9 0 0 37.53 124.43
  L 36.17 134.39
  A 0.17 0.16 -4.6 0 0 36.39 134.57
  L 46.01 131.28"
/>
<path stroke="#855d1a" vector-effect="non-scaling-stroke" d="
  M 46.01 131.28
  Q 64.96 127.40 83.38 128.83
  A 0.27 0.27 0.0 0 0 83.50 128.32
  C 72.32 123.68 58.71 122.48 46.80 123.32"
/>
<path stroke="#ff9519" vector-effect="non-scaling-stroke" d="
  M 46.01 131.28
  L 46.80 123.32"
/>
<path stroke="#4d1f02" vector-effect="non-scaling-stroke" d="
  M 30.25 136.73
  A 0.56 0.56 0.0 0 0 31.04 137.28
  L 34.31 135.75
  A 0.56 0.56 0.0 0 0 34.63 135.29
  L 35.60 125.34
  A 0.56 0.56 0.0 0 0 34.88 124.75
  L 31.37 125.81
  A 0.56 0.56 0.0 0 0 30.97 126.31
  L 30.25 136.73"
/>
<path stroke="#4d1f02" vector-effect="non-scaling-stroke" d="
  M 200.58 135.22
  A 0.52 0.52 0.0 0 0 200.94 135.66
  L 206.11 137.24
  A 0.52 0.52 0.0 0 0 206.78 136.68
  L 205.56 126.78
  A 0.52 0.52 0.0 0 0 205.07 126.32
  L 200.26 126.14
  A 0.52 0.52 0.0 0 0 199.72 126.71
  L 200.58 135.22"
/>
<path stroke="#248181" vector-effect="non-scaling-stroke" d="
  M 42.10 135.17
  A 0.45 0.45 0.0 0 0 41.50 134.65
  L 36.22 136.73
  A 0.45 0.45 0.0 0 0 35.94 137.14
  L 35.84 143.32
  A 0.45 0.45 0.0 0 0 36.47 143.75
  L 40.22 142.13
  A 0.45 0.45 0.0 0 0 40.48 141.82
  L 42.10 135.17"
/>
<path stroke="#4d1f02" vector-effect="non-scaling-stroke" d="
  M 49.77 200.72
  C 40.53 187.52 35.65 171.62 34.42 155.17
  Q 34.15 151.52 33.98 147.97
  Q 33.93 146.93 33.05 147.49
  L 31.33 148.58
  Q 30.39 149.18 30.38 150.30
  C 30.32 158.24 31.80 166.38 33.74 174.55
  Q 37.59 190.71 47.85 204.06
  C 53.74 211.72 60.95 216.83 70.11 219.12
  Q 85.49 222.98 102.58 223.90
  Q 122.79 224.99 145.00 224.14
  C 152.66 223.85 160.18 222.93 167.85 222.01
  Q 178.05 220.80 187.24 217.88
  Q 192.31 216.28 195.37 209.99
  Q 201.13 198.10 203.36 186.62
  Q 205.31 176.58 205.56 173.49
  Q 206.23 165.24 206.93 157.00
  Q 207.39 151.60 206.71 139.82
  Q 206.66 139.10 205.98 138.90
  L 201.60 137.60
  Q 200.87 137.38 200.89 138.15
  C 201.62 157.48 199.90 177.78 193.91 195.77
  Q 190.89 204.86 185.20 211.32
  Q 181.76 215.23 175.93 216.53
  Q 159.98 220.06 144.72 219.42
  Q 142.68 219.33 140.81 219.73
  C 138.59 220.20 136.54 219.87 134.27 220.01
  C 120.50 220.89 107.00 219.70 93.00 218.87
  Q 79.70 218.09 65.53 213.25
  Q 56.33 210.10 49.77 200.72"
/>
<path stroke="#4d1f02" vector-effect="non-scaling-stroke" d="
  M 33.97 138.27
  A 0.53 0.53 0.0 0 0 33.16 137.83
  L 30.39 139.59
  A 0.53 0.53 0.0 0 0 30.14 140.02
  L 29.95 146.48
  A 0.53 0.53 0.0 0 0 30.72 146.97
  L 33.78 145.42
  A 0.53 0.53 0.0 0 0 34.07 144.94
  L 33.97 138.27"
/>
<path stroke="#853001" vector-effect="non-scaling-stroke" d="
  M 174.72 215.09
  C 179.24 214.08 183.64 211.46 186.14 207.52
  C 187.70 205.06 189.21 202.95 190.37 200.18
  C 194.32 190.78 196.27 181.28 197.73 171.28
  Q 197.80 170.76 197.28 170.69
  L 184.78 169.12"
/>
<path stroke="#853b01" vector-effect="non-scaling-stroke" d="
  M 184.78 169.12
  L 163.67 167.49"
/>
<path stroke="#857001" vector-effect="non-scaling-stroke" d="
  M 163.67 167.49
  Q 144.23 167.27 125.75 167.00
  Q 108.85 166.75 92.71 165.21
  Q 91.61 165.10 91.12 166.09
  C 88.36 171.68 81.82 170.53 78.58 166.36
  Q 78.26 165.94 77.75 165.87
  L 71.75 165.02"
/>
<path stroke="#853b01" vector-effect="non-scaling-stroke" d="
  M 71.75 165.02
  Q 61.74 163.58 50.73 160.61
  Q 42.91 158.50 36.32 154.30
  Q 35.90 154.03 35.94 154.52
  Q 37.42 176.67 47.72 194.28
  C 50.22 198.54 53.19 202.82 56.78 206.18
  Q 61.61 210.71 71.45 213.35
  Q 79.79 215.59 87.42 216.53
  C 105.31 218.73 123.18 219.35 141.38 218.43
  C 153.28 217.83 163.68 217.61 174.72 215.09"
/>
<path stroke="#ffa800" vector-effect="non-scaling-stroke" d="
  M 71.75 165.02
  Q 72.76 178.02 76.25 189.90
  A 1.93 1.91 86.7 0 0 77.74 191.24
  C 102.72 195.82 124.67 198.70 152.97 202.20
  C 154.89 202.43 156.82 202.39 158.79 202.36
  A 0.94 0.94 0.0 0 0 159.67 201.71
  Q 160.42 199.49 161.25 196.97
  C 161.81 195.26 161.62 193.58 162.32 191.92
  Q 163.05 190.18 163.09 188.45
  C 163.17 185.62 163.86 183.03 163.85 180.19
  Q 163.81 173.89 163.67 167.49"
/>
<path stroke="#ff6900" vector-effect="non-scaling-stroke" d="
  M 184.78 169.12
  Q 187.25 169.74 186.69 172.04
  Q 186.50 172.79 186.38 173.51
  Q 182.94 194.11 174.90 213.45
  Q 174.46 214.51 173.44 214.74
  Q 172.81 214.88 173.42 215.09
  Q 173.91 215.25 174.72 215.09"
/>
<path stroke="#855d1a" vector-effect="non-scaling-stroke" d="
  M 82.48 160.37
  Q 82.01 161.96 80.82 163.52
  A 1.96 1.94 51.0 0 0 80.62 165.56
  Q 81.07 166.49 81.96 166.88
  Q 82.50 167.10 82.65 166.55
  Q 83.21 164.57 84.43 162.93
  A 0.70 0.69 -63.7 0 1 85.19 162.67
  L 85.56 162.78
  Q 85.93 162.90 85.75 163.23
  Q 84.83 164.89 84.44 166.36
  Q 84.01 168.02 85.73 167.73
  C 92.97 166.48 91.58 153.21 83.56 155.40
  Q 78.11 156.88 78.52 162.59
  Q 78.62 164.10 79.48 162.85
  Q 80.22 161.77 80.84 160.61
  Q 81.21 159.94 81.96 159.79
  Q 82.70 159.65 82.48 160.37"
/>
<path stroke="#858181" vector-effect="non-scaling-stroke" d="
  M 122.75 148.75
  C 123.30 149.48 123.62 150.35 124.26 151.03
  Q 127.50 154.46 131.84 153.10
  C 132.89 152.78 134.15 151.78 134.05 150.54
  A 1.41 1.41 0.0 0 0 131.73 149.57
  C 128.67 152.17 125.61 149.06 124.61 146.23
  Q 123.36 142.69 123.73 138.49
  Q 123.77 138.02 124.22 137.89
  Q 128.00 136.79 129.38 133.09
  Q 129.58 132.56 130.12 132.41
  C 134.52 131.19 138.26 124.64 131.87 122.64
  Q 123.33 119.96 114.48 122.12
  C 112.65 122.57 110.10 123.30 109.66 125.44
  C 108.98 128.77 111.61 131.40 114.63 132.38
  A 1.23 1.23 0.0 0 1 115.43 133.14
  Q 116.72 136.60 120.01 137.75
  Q 120.63 137.97 120.67 138.62
  Q 120.96 142.93 120.17 146.45
  C 119.59 149.00 116.39 152.46 113.82 149.59
  A 1.18 1.18 0.0 0 0 111.84 149.95
  Q 111.25 151.52 112.65 152.40
  C 116.28 154.70 120.70 152.75 122.12 148.85
  Q 122.35 148.22 122.75 148.75"
/>
<path stroke="#858181" vector-effect="non-scaling-stroke" d="
  M 86.7096 107.1377
  A 3.27 2.22 48.2 0 0 86.1850 103.2203
  A 3.27 2.22 48.2 0 0 82.3504 102.2623
  A 3.27 2.22 48.2 0 0 82.8750 106.1797
  A 3.27 2.22 48.2 0 0 86.7096 107.1377"
/>
<path stroke="#858181" vector-effect="non-scaling-stroke" d="
  M 158.7608 107.1186
  A 3.27 2.22 47.7 0 0 158.2020 103.2059
  A 3.27 2.22 47.7 0 0 154.3592 102.2814
  A 3.27 2.22 47.7 0 0 154.9180 106.1941
  A 3.27 2.22 47.7 0 0 158.7608 107.1186"
/>
<path stroke="#85453d" vector-effect="non-scaling-stroke" d="
  M 116.60 128.51
  A 1.24 1.24 0.0 0 1 118.50 127.91
  C 119.98 128.96 119.78 130.43 118.30 131.29
  A 1.90 1.89 49.1 0 0 118.08 134.42
  Q 123.39 138.59 127.36 133.34
  A 1.09 1.08 -56.6 0 0 127.04 131.74
  Q 124.75 130.44 126.01 128.51
  A 1.35 1.35 0.0 0 1 128.48 129.03
  Q 128.57 129.60 128.88 130.09
  A 0.74 0.74 0.0 0 0 129.72 130.41
  Q 132.69 129.56 133.31 126.80
  A 1.40 1.37 36.4 0 0 133.14 125.76
  C 130.65 121.62 118.14 123.02 114.05 123.96
  C 109.23 125.08 112.14 129.77 115.22 130.39
  Q 115.89 130.53 116.12 129.88
  L 116.60 128.51"
/>
</g>
<path fill="#ffffff" d="
  M 0.00 0.00
  L 256.00 0.00
  L 256.00 256.00
  L 0.00 256.00
  L 0.00 0.00
  Z
  M 47.22 209.41
  Q 43.14 210.54 39.61 212.10
  Q 37.05 213.23 35.64 215.31
  A 1.58 1.58 0.0 0 0 35.87 217.35
  C 39.87 221.07 45.69 222.85 50.88 224.08
  Q 73.44 229.45 96.34 230.78
  C 128.18 232.64 159.94 231.77 189.96 227.20
  Q 199.09 225.82 207.82 223.34
  C 211.48 222.31 217.73 220.36 219.85 217.35
  C 220.73 216.11 219.96 214.62 218.88 213.86
  Q 214.34 210.67 207.91 209.58
  C 221.93 193.50 228.50 173.58 229.71 152.54
  C 231.17 127.38 227.39 104.99 214.69 83.43
  Q 214.42 82.96 214.67 82.47
  C 215.25 81.34 216.14 80.35 216.72 79.20
  Q 220.95 70.83 219.60 62.42
  C 216.97 46.02 202.89 35.95 186.52 36.75
  Q 175.21 37.30 165.41 45.37
  Q 164.96 45.74 164.47 45.43
  Q 160.90 43.14 157.08 41.85
  Q 154.52 40.98 157.17 40.47
  Q 160.48 39.83 160.55 37.39
  Q 160.58 36.38 159.67 35.88
  C 156.65 34.20 149.71 35.13 146.85 35.92
  Q 146.21 36.10 146.50 35.49
  L 147.14 34.13
  A 1.10 1.09 23.0 0 0 146.53 32.64
  C 142.88 31.28 133.12 35.53 129.39 37.30
  Q 128.67 37.63 128.80 36.86
  Q 128.95 35.97 128.51 35.19
  Q 128.26 34.74 127.75 34.67
  C 123.38 34.07 117.10 36.51 113.18 38.29
  Q 112.10 38.79 112.73 37.78
  L 116.44 31.82
  A 2.11 2.11 0.0 0 0 115.67 28.85
  Q 114.17 28.03 112.54 28.94
  Q 100.76 35.51 90.61 45.92
  A 1.03 1.03 0.0 0 1 89.18 45.97
  Q 80.51 38.28 70.06 36.73
  C 51.56 34.00 34.95 45.62 32.75 64.53
  C 31.85 72.27 35.04 81.07 41.27 85.89
  Q 41.83 86.32 41.49 86.95
  C 34.79 98.90 30.06 110.80 28.02 124.39
  C 23.76 152.80 27.88 187.10 47.22 209.41
  Z"
/>
<path fill="#0a0202" d="
  M 207.91 209.58
  Q 198.67 219.90 184.00 222.78
  Q 168.88 225.74 153.49 226.84
  Q 118.30 229.35 83.30 225.15
  C 78.56 224.58 73.89 223.52 69.25 222.44
  Q 55.94 219.34 47.22 209.41
  C 27.88 187.10 23.76 152.80 28.02 124.39
  C 30.06 110.80 34.79 98.90 41.49 86.95
  Q 41.83 86.32 41.27 85.89
  C 35.04 81.07 31.85 72.27 32.75 64.53
  C 34.95 45.62 51.56 34.00 70.06 36.73
  Q 80.51 38.28 89.18 45.97
  A 1.03 1.03 0.0 0 0 90.61 45.92
  Q 100.76 35.51 112.54 28.94
  Q 114.17 28.03 115.67 28.85
  A 2.11 2.11 0.0 0 1 116.44 31.82
  L 112.73 37.78
  Q 112.10 38.79 113.18 38.29
  C 117.10 36.51 123.38 34.07 127.75 34.67
  Q 128.26 34.74 128.51 35.19
  Q 128.95 35.97 128.80 36.86
  Q 128.67 37.63 129.39 37.30
  C 133.12 35.53 142.88 31.28 146.53 32.64
  A 1.10 1.09 23.0 0 1 147.14 34.13
  L 146.50 35.49
  Q 146.21 36.10 146.85 35.92
  C 149.71 35.13 156.65 34.20 159.67 35.88
  Q 160.58 36.38 160.55 37.39
  Q 160.48 39.83 157.17 40.47
  Q 154.52 40.98 157.08 41.85
  Q 160.90 43.14 164.47 45.43
  Q 164.96 45.74 165.41 45.37
  Q 175.21 37.30 186.52 36.75
  C 202.89 35.95 216.97 46.02 219.60 62.42
  Q 220.95 70.83 216.72 79.20
  C 216.14 80.35 215.25 81.34 214.67 82.47
  Q 214.42 82.96 214.69 83.43
  C 227.39 104.99 231.17 127.38 229.71 152.54
  C 228.50 173.58 221.93 193.50 207.91 209.58
  Z
  M 59.74 40.45
  C 46.12 42.97 35.25 54.67 36.55 68.83
  Q 37.89 83.41 52.94 88.36
  A 1.35 1.35 0.0 0 0 54.55 87.70
  L 54.79 87.25
  Q 55.25 86.38 54.30 86.09
  C 42.97 82.70 37.04 72.51 39.62 61.09
  Q 42.27 49.41 53.07 44.60
  C 55.23 43.64 57.51 43.36 59.77 42.76
  Q 61.81 42.70 64.00 42.68
  Q 77.35 42.55 83.54 53.81
  A 0.90 0.89 59.3 0 1 83.24 55.00
  L 74.88 60.37
  Q 65.36 68.28 60.13 79.83
  Q 57.37 85.93 54.99 92.19
  C 53.82 95.27 52.53 97.59 50.13 99.39
  Q 48.48 100.62 49.43 98.80
  C 50.81 96.14 52.20 93.88 52.97 90.92
  Q 53.11 90.39 52.61 90.17
  Q 51.76 89.79 50.84 89.91
  Q 50.29 89.98 50.01 90.44
  Q 41.43 104.52 38.22 121.50
  A 0.42 0.41 3.2 0 0 38.66 121.99
  L 47.41 121.37
  C 59.80 120.59 72.25 122.23 83.86 126.57
  Q 86.38 127.51 87.63 129.25
  A 1.00 1.00 0.0 0 1 86.72 130.82
  Q 65.96 128.92 46.66 133.02
  L 44.68 133.71
  Q 44.17 133.89 44.05 134.42
  L 42.69 140.48
  Q 42.55 141.08 43.14 140.87
  L 48.00 139.12
  Q 70.15 132.33 93.48 132.28
  L 93.42 133.70
  L 93.24 133.93
  Q 93.03 134.19 92.70 134.18
  Q 70.00 133.98 48.51 141.01
  L 36.33 145.98
  Q 35.74 146.23 35.75 146.87
  Q 35.77 147.84 35.73 148.92
  Q 35.65 151.51 37.41 152.59
  Q 45.35 157.46 54.52 159.35
  L 75.94 163.10
  Q 76.55 163.21 76.52 162.59
  Q 76.25 156.52 81.34 154.03
  C 86.97 151.28 93.14 155.88 92.47 162.00
  Q 92.39 162.68 93.07 162.75
  C 115.87 165.21 138.61 165.05 161.50 164.99
  Q 170.32 164.97 188.47 167.27
  L 197.38 168.78
  A 0.49 0.48 7.3 0 0 197.94 168.35
  Q 199.52 152.56 198.84 137.53
  Q 198.81 137.01 198.32 136.87
  L 196.29 136.30
  Q 174.43 132.23 152.63 134.37
  A 0.80 0.80 0.0 0 1 151.78 133.80
  Q 151.68 133.45 151.75 133.12
  Q 151.96 132.07 153.03 132.06
  Q 161.53 132.01 170.00 131.86
  Q 180.52 131.67 196.14 134.37
  L 198.30 134.96
  A 0.45 0.45 0.0 0 0 198.87 134.47
  L 197.95 126.92
  Q 197.88 126.33 197.30 126.29
  L 195.03 126.14
  Q 183.05 125.79 171.25 127.60
  Q 165.11 128.54 158.93 130.96
  A 0.61 0.61 0.0 0 1 158.14 130.62
  L 158.02 130.32
  Q 157.67 129.45 158.48 128.98
  Q 159.52 128.39 160.54 128.11
  Q 177.03 123.69 194.33 124.30
  L 197.11 124.25
  Q 197.62 124.24 197.53 123.74
  Q 194.72 107.74 188.47 85.02
  Q 183.66 67.51 170.85 56.77
  Q 169.81 56.30 169.43 55.28
  Q 169.25 54.80 169.50 54.35
  Q 177.20 40.22 194.06 43.18
  C 204.93 45.36 212.57 53.57 213.21 64.56
  C 213.95 77.22 204.49 86.87 192.03 87.27
  A 0.44 0.44 0.0 0 0 191.62 87.79
  L 191.82 88.69
  A 0.64 0.64 0.0 0 0 192.47 89.20
  Q 203.76 88.89 210.33 81.74
  C 215.36 76.26 217.37 68.15 215.64 61.24
  Q 211.82 46.01 195.93 41.17
  Q 182.10 38.04 170.63 46.48
  Q 168.20 48.26 165.74 50.41
  Q 165.33 50.76 164.90 50.44
  Q 157.06 44.49 147.93 42.85
  Q 146.56 42.60 147.75 41.88
  Q 150.65 40.12 154.09 38.83
  Q 154.26 38.77 154.29 38.59
  Q 154.30 38.53 154.28 38.49
  Q 154.17 38.26 153.92 38.28
  Q 146.28 38.85 138.69 41.63
  Q 135.73 42.70 137.95 40.47
  L 140.96 37.44
  Q 142.54 35.85 140.43 36.62
  Q 129.80 40.50 119.99 45.45
  Q 117.32 46.79 119.31 44.56
  L 124.13 39.17
  Q 125.38 37.77 123.58 38.29
  Q 111.05 41.91 101.56 50.21
  A 0.26 0.25 -17.9 0 1 101.14 50.00
  Q 101.18 49.65 101.36 49.35
  Q 105.54 42.67 110.65 34.99
  Q 111.32 33.99 110.14 34.20
  Q 109.82 34.26 109.62 34.42
  Q 99.01 42.46 90.03 51.46
  A 0.78 0.78 0.0 0 1 88.90 51.43
  C 81.06 42.80 71.54 38.45 59.74 40.45
  Z
  M 55.98 49.30
  C 62.67 49.75 67.88 56.26 69.04 62.24
  Q 69.19 63.03 69.72 62.42
  C 72.44 59.27 76.58 56.52 80.24 54.53
  A 0.68 0.68 0.0 0 0 80.51 53.60
  C 75.45 44.56 63.81 41.70 55.70 48.45
  A 0.48 0.48 0.0 0 0 55.98 49.30
  Z
  M 195.98 49.28
  A 0.37 0.37 0.0 0 0 196.19 48.67
  C 191.98 44.02 184.73 44.10 179.37 46.83
  Q 174.71 49.20 171.80 54.47
  A 0.82 0.81 -57.7 0 0 172.03 55.52
  Q 176.58 58.90 180.09 63.62
  Q 180.57 64.25 180.74 63.48
  Q 183.45 51.40 195.98 49.28
  Z
  M 197.86 51.02
  Q 197.68 51.16 197.50 51.30
  C 189.32 51.61 183.10 57.64 182.45 65.77
  Q 182.41 66.30 182.68 66.75
  Q 187.98 75.62 190.88 85.44
  Q 191.04 85.98 191.59 85.91
  L 196.85 85.29
  Q 204.88 83.12 208.67 76.94
  Q 215.12 66.40 209.18 55.79
  C 207.34 50.53 201.54 46.99 196.40 45.47
  Q 195.48 45.20 196.08 45.94
  Q 196.74 46.76 197.45 47.53
  Q 199.27 49.50 197.86 51.02
  Z
  M 43.85 54.35
  Q 39.38 61.22 40.53 69.00
  Q 42.11 79.62 52.53 84.34
  Q 53.38 85.00 54.74 85.28
  Q 55.32 85.40 55.52 84.85
  Q 59.29 74.32 66.28 65.76
  C 66.89 65.02 67.46 63.86 67.21 62.89
  Q 64.65 52.75 54.41 50.85
  Q 53.48 50.68 53.40 49.75
  Q 53.26 48.20 54.90 46.70
  Q 56.10 45.59 54.51 45.98
  Q 47.79 47.63 43.85 54.35
  Z
  M 219.59 184.11
  C 219.92 183.19 220.65 182.44 220.94 181.53
  Q 223.47 173.36 224.87 165.83
  Q 226.84 155.21 226.67 139.61
  Q 226.36 111.13 212.21 86.00
  Q 211.44 84.64 210.15 85.52
  L 209.64 85.87
  Q 208.17 86.87 209.05 88.41
  Q 216.52 101.61 219.47 115.55
  C 224.82 140.85 223.73 169.76 211.27 192.81
  Q 205.64 203.22 198.54 208.88
  C 196.80 210.26 195.42 212.16 194.36 214.10
  Q 193.68 215.37 195.03 214.88
  C 200.04 213.06 204.08 208.49 207.63 204.45
  Q 209.05 202.83 210.19 200.97
  Q 211.22 199.28 212.39 197.64
  Q 217.02 191.20 219.59 184.11
  Z
  M 47.21 88.77
  L 46.36 88.43
  Q 45.06 87.91 44.35 89.11
  Q 35.06 104.83 31.89 122.46
  Q 31.64 123.87 33.03 123.49
  L 34.85 122.99
  Q 36.22 122.62 36.49 121.22
  Q 39.54 105.57 47.83 90.51
  Q 48.51 89.29 47.21 88.77
  Z
  M 209.65 139.74
  Q 209.34 139.82 209.01 139.81
  Q 208.35 139.79 208.39 140.45
  Q 209.50 160.45 205.99 181.63
  Q 203.98 193.78 199.55 204.85
  A 0.43 0.43 0.0 0 0 199.80 205.42
  Q 200.05 205.50 200.24 205.31
  C 209.47 195.77 215.69 181.68 218.23 169.26
  C 223.15 145.27 221.05 118.37 211.16 95.98
  Q 209.40 92.00 207.07 88.65
  Q 206.77 88.21 206.27 88.38
  L 201.11 90.09
  A 0.88 0.87 -17.3 0 0 200.55 91.15
  Q 204.82 106.43 206.85 122.28
  Q 206.97 123.27 207.33 124.21
  C 207.89 125.73 207.43 127.27 207.60 128.84
  Q 208.04 132.98 208.26 137.04
  A 1.17 1.16 -75.9 0 0 208.82 137.98
  L 209.83 138.60
  Q 211.10 139.38 209.65 139.74
  Z
  M 192.70 92.09
  C 195.43 102.39 197.68 113.07 199.36 123.49
  Q 199.51 124.36 200.38 124.44
  L 204.79 124.83
  A 0.74 0.74 0.0 0 0 205.58 123.98
  Q 203.07 106.77 198.75 91.13
  Q 198.59 90.54 198.00 90.63
  L 193.20 91.33
  Q 192.52 91.43 192.70 92.09
  Z
  M 46.80 123.32
  L 37.85 124.13
  A 0.35 0.34 0.9 0 0 37.53 124.43
  L 36.17 134.39
  A 0.17 0.16 -4.6 0 0 36.39 134.57
  L 46.01 131.28
  Q 64.96 127.40 83.38 128.83
  A 0.27 0.27 0.0 0 0 83.50 128.32
  C 72.32 123.68 58.71 122.48 46.80 123.32
  Z
  M 30.25 136.73
  A 0.56 0.56 0.0 0 0 31.04 137.28
  L 34.31 135.75
  A 0.56 0.56 0.0 0 0 34.63 135.29
  L 35.60 125.34
  A 0.56 0.56 0.0 0 0 34.88 124.75
  L 31.37 125.81
  A 0.56 0.56 0.0 0 0 30.97 126.31
  L 30.25 136.73
  Z
  M 200.58 135.22
  A 0.52 0.52 0.0 0 0 200.94 135.66
  L 206.11 137.24
  A 0.52 0.52 0.0 0 0 206.78 136.68
  L 205.56 126.78
  A 0.52 0.52 0.0 0 0 205.07 126.32
  L 200.26 126.14
  A 0.52 0.52 0.0 0 0 199.72 126.71
  L 200.58 135.22
  Z
  M 42.10 135.17
  A 0.45 0.45 0.0 0 0 41.50 134.65
  L 36.22 136.73
  A 0.45 0.45 0.0 0 0 35.94 137.14
  L 35.84 143.32
  A 0.45 0.45 0.0 0 0 36.47 143.75
  L 40.22 142.13
  A 0.45 0.45 0.0 0 0 40.48 141.82
  L 42.10 135.17
  Z
  M 49.77 200.72
  C 40.53 187.52 35.65 171.62 34.42 155.17
  Q 34.15 151.52 33.98 147.97
  Q 33.93 146.93 33.05 147.49
  L 31.33 148.58
  Q 30.39 149.18 30.38 150.30
  C 30.32 158.24 31.80 166.38 33.74 174.55
  Q 37.59 190.71 47.85 204.06
  C 53.74 211.72 60.95 216.83 70.11 219.12
  Q 85.49 222.98 102.58 223.90
  Q 122.79 224.99 145.00 224.14
  C 152.66 223.85 160.18 222.93 167.85 222.01
  Q 178.05 220.80 187.24 217.88
  Q 192.31 216.28 195.37 209.99
  Q 201.13 198.10 203.36 186.62
  Q 205.31 176.58 205.56 173.49
  Q 206.23 165.24 206.93 157.00
  Q 207.39 151.60 206.71 139.82
  Q 206.66 139.10 205.98 138.90
  L 201.60 137.60
  Q 200.87 137.38 200.89 138.15
  C 201.62 157.48 199.90 177.78 193.91 195.77
  Q 190.89 204.86 185.20 211.32
  Q 181.76 215.23 175.93 216.53
  Q 159.98 220.06 144.72 219.42
  Q 142.68 219.33 140.81 219.73
  C 138.59 220.20 136.54 219.87 134.27 220.01
  C 120.50 220.89 107.00 219.70 93.00 218.87
  Q 79.70 218.09 65.53 213.25
  Q 56.33 210.10 49.77 200.72
  Z
  M 33.97 138.27
  A 0.53 0.53 0.0 0 0 33.16 137.83
  L 30.39 139.59
  A 0.53 0.53 0.0 0 0 30.14 140.02
  L 29.95 146.48
  A 0.53 0.53 0.0 0 0 30.72 146.97
  L 33.78 145.42
  A 0.53 0.53 0.0 0 0 34.07 144.94
  L 33.97 138.27
  Z
  M 174.72 215.09
  C 179.24 214.08 183.64 211.46 186.14 207.52
  C 187.70 205.06 189.21 202.95 190.37 200.18
  C 194.32 190.78 196.27 181.28 197.73 171.28
  Q 197.80 170.76 197.28 170.69
  L 184.78 169.12
  L 163.67 167.49
  Q 144.23 167.27 125.75 167.00
  Q 108.85 166.75 92.71 165.21
  Q 91.61 165.10 91.12 166.09
  C 88.36 171.68 81.82 170.53 78.58 166.36
  Q 78.26 165.94 77.75 165.87
  L 71.75 165.02
  Q 61.74 163.58 50.73 160.61
  Q 42.91 158.50 36.32 154.30
  Q 35.90 154.03 35.94 154.52
  Q 37.42 176.67 47.72 194.28
  C 50.22 198.54 53.19 202.82 56.78 206.18
  Q 61.61 210.71 71.45 213.35
  Q 79.79 215.59 87.42 216.53
  C 105.31 218.73 123.18 219.35 141.38 218.43
  C 153.28 217.83 163.68 217.61 174.72 215.09
  Z
  M 82.48 160.37
  Q 82.01 161.96 80.82 163.52
  A 1.96 1.94 51.0 0 0 80.62 165.56
  Q 81.07 166.49 81.96 166.88
  Q 82.50 167.10 82.65 166.55
  Q 83.21 164.57 84.43 162.93
  A 0.70 0.69 -63.7 0 1 85.19 162.67
  L 85.56 162.78
  Q 85.93 162.90 85.75 163.23
  Q 84.83 164.89 84.44 166.36
  Q 84.01 168.02 85.73 167.73
  C 92.97 166.48 91.58 153.21 83.56 155.40
  Q 78.11 156.88 78.52 162.59
  Q 78.62 164.10 79.48 162.85
  Q 80.22 161.77 80.84 160.61
  Q 81.21 159.94 81.96 159.79
  Q 82.70 159.65 82.48 160.37
  Z"
/>
<path fill="#ffb731" d="
  M 195.93 41.17
  Q 196.27 41.90 196.31 42.33
  Q 196.35 42.89 195.80 42.84
  Q 194.69 42.74 194.06 43.18
  Q 177.20 40.22 169.50 54.35
  Q 169.25 54.80 169.43 55.28
  Q 169.81 56.30 170.85 56.77
  Q 174.32 64.46 178.72 71.01
  Q 180.28 73.34 183.30 81.40
  Q 185.16 86.38 186.68 92.23
  Q 190.80 108.07 194.33 124.30
  Q 177.03 123.69 160.54 128.11
  Q 159.52 128.39 158.48 128.98
  Q 157.67 129.45 158.02 130.32
  L 158.14 130.62
  A 0.61 0.61 0.0 0 0 158.93 130.96
  Q 165.11 128.54 171.25 127.60
  Q 183.05 125.79 195.03 126.14
  Q 194.71 130.43 196.14 134.37
  Q 180.52 131.67 170.00 131.86
  Q 161.53 132.01 153.03 132.06
  Q 151.96 132.07 151.75 133.12
  Q 151.68 133.45 151.78 133.80
  A 0.80 0.80 0.0 0 0 152.63 134.37
  Q 174.43 132.23 196.29 136.30
  L 192.59 155.50
  Q 191.15 154.57 189.93 153.61
  C 180.25 145.96 168.49 141.74 156.83 138.21
  C 152.44 136.87 149.08 135.03 151.65 129.91
  Q 153.59 126.06 158.57 123.31
  Q 169.46 122.10 171.66 111.87
  L 179.61 109.05
  A 0.71 0.70 71.0 0 0 180.04 108.16
  Q 177.35 100.17 173.16 93.69
  Q 167.94 85.62 162.59 81.09
  Q 145.53 66.65 123.73 66.98
  Q 85.04 67.58 67.69 102.45
  Q 66.37 105.10 65.46 108.03
  A 1.04 1.04 0.0 0 0 66.09 109.31
  L 73.29 112.02
  Q 76.00 122.91 87.53 123.03
  Q 92.06 126.33 93.57 130.74
  Q 93.99 131.98 93.48 132.28
  Q 70.15 132.33 48.00 139.12
  L 46.66 133.02
  Q 65.96 128.92 86.72 130.82
  A 1.00 1.00 0.0 0 0 87.63 129.25
  Q 86.38 127.51 83.86 126.57
  C 72.25 122.23 59.80 120.59 47.41 121.37
  Q 47.94 118.24 49.43 114.15
  Q 53.50 102.93 57.42 92.80
  Q 60.52 84.77 63.22 79.64
  Q 68.31 69.93 75.27 62.34
  Q 75.63 61.94 75.40 61.45
  L 74.88 60.37
  L 83.24 55.00
  A 0.90 0.89 59.3 0 0 83.54 53.81
  Q 77.35 42.55 64.00 42.68
  Q 61.81 42.70 59.77 42.76
  Q 58.78 42.13 58.75 41.50
  Q 58.73 41.00 59.74 40.45
  C 71.54 38.45 81.06 42.80 88.90 51.43
  A 0.78 0.78 0.0 0 0 90.03 51.46
  Q 99.01 42.46 109.62 34.42
  Q 109.82 34.26 110.14 34.20
  Q 111.32 33.99 110.65 34.99
  Q 105.54 42.67 101.36 49.35
  Q 101.18 49.65 101.14 50.00
  A 0.26 0.25 -17.9 0 0 101.56 50.21
  Q 111.05 41.91 123.58 38.29
  Q 125.38 37.77 124.13 39.17
  L 119.31 44.56
  Q 117.32 46.79 119.99 45.45
  Q 129.80 40.50 140.43 36.62
  Q 142.54 35.85 140.96 37.44
  L 137.95 40.47
  Q 135.73 42.70 138.69 41.63
  Q 146.28 38.85 153.92 38.28
  Q 154.17 38.26 154.28 38.49
  Q 154.30 38.53 154.29 38.59
  Q 154.26 38.77 154.09 38.83
  Q 150.65 40.12 147.75 41.88
  Q 146.56 42.60 147.93 42.85
  Q 157.06 44.49 164.90 50.44
  Q 165.33 50.76 165.74 50.41
  Q 168.20 48.26 170.63 46.48
  Q 182.10 38.04 195.93 41.17
  Z"
/>
<path fill="#ff7300" d="
  M 59.74 40.45
  Q 58.73 41.00 58.75 41.50
  Q 58.78 42.13 59.77 42.76
  C 57.51 43.36 55.23 43.64 53.07 44.60
  Q 42.27 49.41 39.62 61.09
  C 37.04 72.51 42.97 82.70 54.30 86.09
  Q 55.25 86.38 54.79 87.25
  L 54.55 87.70
  A 1.35 1.35 0.0 0 1 52.94 88.36
  Q 37.89 83.41 36.55 68.83
  C 35.25 54.67 46.12 42.97 59.74 40.45
  Z"
/>
<path fill="#ff7300" d="
  M 195.93 41.17
  Q 211.82 46.01 215.64 61.24
  C 217.37 68.15 215.36 76.26 210.33 81.74
  Q 203.76 88.89 192.47 89.20
  A 0.64 0.64 0.0 0 1 191.82 88.69
  L 191.62 87.79
  A 0.44 0.44 0.0 0 1 192.03 87.27
  C 204.49 86.87 213.95 77.22 213.21 64.56
  C 212.57 53.57 204.93 45.36 194.06 43.18
  Q 194.69 42.74 195.80 42.84
  Q 196.35 42.89 196.31 42.33
  Q 196.27 41.90 195.93 41.17
  Z"
/>
<path fill="#ffffff" d="
  M 69.04 62.24
  C 67.88 56.26 62.67 49.75 55.98 49.30
  A 0.48 0.48 0.0 0 1 55.70 48.45
  C 63.81 41.70 75.45 44.56 80.51 53.60
  A 0.68 0.68 0.0 0 1 80.24 54.53
  C 76.58 56.52 72.44 59.27 69.72 62.42
  Q 69.19 63.03 69.04 62.24
  Z"
/>
<path fill="#ffffff" d="
  M 195.98 49.28
  Q 183.45 51.40 180.74 63.48
  Q 180.57 64.25 180.09 63.62
  Q 176.58 58.90 172.03 55.52
  A 0.82 0.81 -57.7 0 1 171.80 54.47
  Q 174.71 49.20 179.37 46.83
  C 184.73 44.10 191.98 44.02 196.19 48.67
  A 0.37 0.37 0.0 0 1 195.98 49.28
  Z"
/>
<path fill="#fe5447" d="
  M 209.18 55.79
  Q 203.14 51.61 197.86 51.02
  Q 199.27 49.50 197.45 47.53
  Q 196.74 46.76 196.08 45.94
  Q 195.48 45.20 196.40 45.47
  C 201.54 46.99 207.34 50.53 209.18 55.79
  Z"
/>
<path fill="#fe5447" d="
  M 52.53 84.34
  Q 53.33 84.57 53.64 83.98
  Q 53.89 83.50 53.70 82.97
  C 53.33 81.97 52.82 80.91 52.70 79.85
  C 51.71 71.26 54.81 61.99 62.68 57.74
  A 0.68 0.68 0.0 0 0 62.57 56.49
  Q 57.63 54.82 52.94 51.86
  Q 52.51 51.59 52.02 51.65
  Q 47.84 52.18 43.85 54.35
  Q 47.79 47.63 54.51 45.98
  Q 56.10 45.59 54.90 46.70
  Q 53.26 48.20 53.40 49.75
  Q 53.48 50.68 54.41 50.85
  Q 64.65 52.75 67.21 62.89
  C 67.46 63.86 66.89 65.02 66.28 65.76
  Q 59.29 74.32 55.52 84.85
  Q 55.32 85.40 54.74 85.28
  Q 53.38 85.00 52.53 84.34
  Z"
/>
<path fill="#fe5447" d="
  M 197.50 51.30
  C 194.69 55.00 190.31 54.90 187.40 57.84
  A 0.52 0.52 0.0 0 0 187.56 58.68
  C 193.25 61.14 197.83 68.62 198.80 74.50
  Q 199.69 79.82 196.85 85.29
  L 191.59 85.91
  Q 191.04 85.98 190.88 85.44
  Q 187.98 75.62 182.68 66.75
  Q 182.41 66.30 182.45 65.77
  C 183.10 57.64 189.32 51.61 197.50 51.30
  Z"
/>
<path fill="#ff8878" d="
  M 197.50 51.30
  Q 197.68 51.16 197.86 51.02
  Q 203.14 51.61 209.18 55.79
  Q 215.12 66.40 208.67 76.94
  Q 204.88 83.12 196.85 85.29
  Q 199.69 79.82 198.80 74.50
  C 197.83 68.62 193.25 61.14 187.56 58.68
  A 0.52 0.52 0.0 0 1 187.40 57.84
  C 190.31 54.90 194.69 55.00 197.50 51.30
  Z"
/>
<path fill="#ff8878" d="
  M 52.53 84.34
  Q 42.11 79.62 40.53 69.00
  Q 39.38 61.22 43.85 54.35
  Q 47.84 52.18 52.02 51.65
  Q 52.51 51.59 52.94 51.86
  Q 57.63 54.82 62.57 56.49
  A 0.68 0.68 0.0 0 1 62.68 57.74
  C 54.81 61.99 51.71 71.26 52.70 79.85
  C 52.82 80.91 53.33 81.97 53.70 82.97
  Q 53.89 83.50 53.64 83.98
  Q 53.33 84.57 52.53 84.34
  Z"
/>
<path fill="#ff7300" d="
  M 170.85 56.77
  Q 183.66 67.51 188.47 85.02
  Q 194.72 107.74 197.53 123.74
  Q 197.62 124.24 197.11 124.25
  L 194.33 124.30
  Q 190.80 108.07 186.68 92.23
  Q 185.16 86.38 183.30 81.40
  Q 180.28 73.34 178.72 71.01
  Q 174.32 64.46 170.85 56.77
  Z"
/>
<path fill="#ff7300" d="
  M 74.88 60.37
  L 75.40 61.45
  Q 75.63 61.94 75.27 62.34
  Q 68.31 69.93 63.22 79.64
  Q 60.52 84.77 57.42 92.80
  Q 53.50 102.93 49.43 114.15
  Q 47.94 118.24 47.41 121.37
  L 38.66 121.99
  A 0.42 0.41 3.2 0 1 38.22 121.50
  Q 41.43 104.52 50.01 90.44
  Q 50.29 89.98 50.84 89.91
  Q 51.76 89.79 52.61 90.17
  Q 53.11 90.39 52.97 90.92
  C 52.20 93.88 50.81 96.14 49.43 98.80
  Q 48.48 100.62 50.13 99.39
  C 52.53 97.59 53.82 95.27 54.99 92.19
  Q 57.37 85.93 60.13 79.83
  Q 65.36 68.28 74.88 60.37
  Z"
/>
<path fill="#ffffff" d="
  M 171.66 111.87
  Q 172.32 104.27 167.76 99.25
  C 162.10 93.01 153.21 93.86 148.52 100.75
  Q 144.48 106.69 146.71 113.73
  Q 149.34 122.07 158.57 123.31
  Q 153.59 126.06 151.65 129.91
  C 149.08 135.03 152.44 136.87 156.83 138.21
  C 168.49 141.74 180.25 145.96 189.93 153.61
  Q 191.15 154.57 192.59 155.50
  L 188.47 167.27
  Q 170.32 164.97 161.50 164.99
  C 138.61 165.05 115.87 165.21 93.07 162.75
  Q 92.39 162.68 92.47 162.00
  C 93.14 155.88 86.97 151.28 81.34 154.03
  Q 76.25 156.52 76.52 162.59
  Q 76.55 163.21 75.94 163.10
  L 54.52 159.35
  C 54.85 157.21 53.13 155.13 52.23 153.34
  Q 55.60 151.40 58.87 149.44
  Q 68.92 143.41 79.29 140.47
  Q 84.52 138.98 89.44 137.54
  Q 91.55 136.92 93.22 134.96
  Q 93.47 134.67 93.49 134.38
  Q 93.53 134.03 93.42 133.70
  L 93.48 132.28
  Q 93.99 131.98 93.57 130.74
  Q 92.06 126.33 87.53 123.03
  C 97.19 121.33 101.38 111.44 97.93 102.99
  C 94.46 94.50 83.76 92.31 77.30 99.12
  Q 72.65 104.03 73.29 112.02
  L 66.09 109.31
  A 1.04 1.04 0.0 0 1 65.46 108.03
  Q 66.37 105.10 67.69 102.45
  Q 85.04 67.58 123.73 66.98
  Q 145.53 66.65 162.59 81.09
  Q 167.94 85.62 173.16 93.69
  Q 177.35 100.17 180.04 108.16
  A 0.71 0.70 71.0 0 1 179.61 109.05
  L 171.66 111.87
  Z
  M 122.75 148.75
  C 123.30 149.48 123.62 150.35 124.26 151.03
  Q 127.50 154.46 131.84 153.10
  C 132.89 152.78 134.15 151.78 134.05 150.54
  A 1.41 1.41 0.0 0 0 131.73 149.57
  C 128.67 152.17 125.61 149.06 124.61 146.23
  Q 123.36 142.69 123.73 138.49
  Q 123.77 138.02 124.22 137.89
  Q 128.00 136.79 129.38 133.09
  Q 129.58 132.56 130.12 132.41
  C 134.52 131.19 138.26 124.64 131.87 122.64
  Q 123.33 119.96 114.48 122.12
  C 112.65 122.57 110.10 123.30 109.66 125.44
  C 108.98 128.77 111.61 131.40 114.63 132.38
  A 1.23 1.23 0.0 0 1 115.43 133.14
  Q 116.72 136.60 120.01 137.75
  Q 120.63 137.97 120.67 138.62
  Q 120.96 142.93 120.17 146.45
  C 119.59 149.00 116.39 152.46 113.82 149.59
  A 1.18 1.18 0.0 0 0 111.84 149.95
  Q 111.25 151.52 112.65 152.40
  C 116.28 154.70 120.70 152.75 122.12 148.85
  Q 122.35 148.22 122.75 148.75
  Z"
/>
<path fill="#903b02" d="
  M 219.59 184.11
  Q 217.02 191.20 212.39 197.64
  Q 211.22 199.28 210.19 200.97
  Q 209.05 202.83 207.63 204.45
  C 204.08 208.49 200.04 213.06 195.03 214.88
  Q 193.68 215.37 194.36 214.10
  C 195.42 212.16 196.80 210.26 198.54 208.88
  Q 205.64 203.22 211.27 192.81
  C 223.73 169.76 224.82 140.85 219.47 115.55
  Q 216.52 101.61 209.05 88.41
  Q 208.17 86.87 209.64 85.87
  L 210.15 85.52
  Q 211.44 84.64 212.21 86.00
  Q 226.36 111.13 226.67 139.61
  Q 226.84 155.21 224.87 165.83
  Q 223.47 173.36 220.94 181.53
  C 220.65 182.44 219.92 183.19 219.59 184.11
  Z"
/>
<path fill="#903b02" d="
  M 47.83 90.51
  Q 39.54 105.57 36.49 121.22
  Q 36.22 122.62 34.85 122.99
  L 33.03 123.49
  Q 31.64 123.87 31.89 122.46
  Q 35.06 104.83 44.35 89.11
  Q 45.06 87.91 46.36 88.43
  L 47.21 88.77
  Q 48.51 89.29 47.83 90.51
  Z"
/>
<path fill="#ffdd00" d="
  M 209.65 139.74
  Q 211.10 139.38 209.83 138.60
  L 208.82 137.98
  A 1.17 1.16 -75.9 0 1 208.26 137.04
  Q 208.04 132.98 207.60 128.84
  C 207.43 127.27 207.89 125.73 207.33 124.21
  Q 206.97 123.27 206.85 122.28
  Q 204.82 106.43 200.55 91.15
  A 0.88 0.87 -17.3 0 1 201.11 90.09
  L 206.27 88.38
  Q 206.77 88.21 207.07 88.65
  Q 209.40 92.00 211.16 95.98
  C 221.05 118.37 223.15 145.27 218.23 169.26
  C 215.69 181.68 209.47 195.77 200.24 205.31
  Q 200.05 205.50 199.80 205.42
  A 0.43 0.43 0.0 0 1 199.55 204.85
  Q 203.98 193.78 205.99 181.63
  Q 209.50 160.45 208.39 140.45
  Q 208.35 139.79 209.01 139.81
  Q 209.34 139.82 209.65 139.74
  Z"
/>
<path fill="#903b02" d="
  M 199.36 123.49
  C 197.68 113.07 195.43 102.39 192.70 92.09
  Q 192.52 91.43 193.20 91.33
  L 198.00 90.63
  Q 198.59 90.54 198.75 91.13
  Q 203.07 106.77 205.58 123.98
  A 0.74 0.74 0.0 0 1 204.79 124.83
  L 200.38 124.44
  Q 199.51 124.36 199.36 123.49
  Z"
/>
<path fill="#0a0202" d="
  M 87.53 123.03
  Q 76.00 122.91 73.29 112.02
  Q 72.65 104.03 77.30 99.12
  C 83.76 92.31 94.46 94.50 97.93 102.99
  C 101.38 111.44 97.19 121.33 87.53 123.03
  Z
  M 86.7096 107.1377
  A 3.27 2.22 48.2 0 0 86.1850 103.2203
  A 3.27 2.22 48.2 0 0 82.3504 102.2623
  A 3.27 2.22 48.2 0 0 82.8750 106.1797
  A 3.27 2.22 48.2 0 0 86.7096 107.1377
  Z"
/>
<path fill="#0a0202" d="
  M 171.66 111.87
  Q 169.46 122.10 158.57 123.31
  Q 149.34 122.07 146.71 113.73
  Q 144.48 106.69 148.52 100.75
  C 153.21 93.86 162.10 93.01 167.76 99.25
  Q 172.32 104.27 171.66 111.87
  Z
  M 158.7608 107.1186
  A 3.27 2.22 47.7 0 0 158.2020 103.2059
  A 3.27 2.22 47.7 0 0 154.3592 102.2814
  A 3.27 2.22 47.7 0 0 154.9180 106.1941
  A 3.27 2.22 47.7 0 0 158.7608 107.1186
  Z"
/>
<ellipse fill="#ffffff" cx="0.00" cy="0.00" transform="translate(84.53,104.70) rotate(48.2)" rx="3.27" ry="2.22"/>
<ellipse fill="#ffffff" cx="0.00" cy="0.00" transform="translate(156.56,104.70) rotate(47.7)" rx="3.27" ry="2.22"/>
<path fill="#0a0202" d="
  M 122.12 148.85
  C 120.70 152.75 116.28 154.70 112.65 152.40
  Q 111.25 151.52 111.84 149.95
  A 1.18 1.18 0.0 0 1 113.82 149.59
  C 116.39 152.46 119.59 149.00 120.17 146.45
  Q 120.96 142.93 120.67 138.62
  Q 120.63 137.97 120.01 137.75
  Q 116.72 136.60 115.43 133.14
  A 1.23 1.23 0.0 0 0 114.63 132.38
  C 111.61 131.40 108.98 128.77 109.66 125.44
  C 110.10 123.30 112.65 122.57 114.48 122.12
  Q 123.33 119.96 131.87 122.64
  C 138.26 124.64 134.52 131.19 130.12 132.41
  Q 129.58 132.56 129.38 133.09
  Q 128.00 136.79 124.22 137.89
  Q 123.77 138.02 123.73 138.49
  Q 123.36 142.69 124.61 146.23
  C 125.61 149.06 128.67 152.17 131.73 149.57
  A 1.41 1.41 0.0 0 1 134.05 150.54
  C 134.15 151.78 132.89 152.78 131.84 153.10
  Q 127.50 154.46 124.26 151.03
  C 123.62 150.35 123.30 149.48 122.75 148.75
  Q 122.35 148.22 122.12 148.85
  Z
  M 116.60 128.51
  A 1.24 1.24 0.0 0 1 118.50 127.91
  C 119.98 128.96 119.78 130.43 118.30 131.29
  A 1.90 1.89 49.1 0 0 118.08 134.42
  Q 123.39 138.59 127.36 133.34
  A 1.09 1.08 -56.6 0 0 127.04 131.74
  Q 124.75 130.44 126.01 128.51
  A 1.35 1.35 0.0 0 1 128.48 129.03
  Q 128.57 129.60 128.88 130.09
  A 0.74 0.74 0.0 0 0 129.72 130.41
  Q 132.69 129.56 133.31 126.80
  A 1.40 1.37 36.4 0 0 133.14 125.76
  C 130.65 121.62 118.14 123.02 114.05 123.96
  C 109.23 125.08 112.14 129.77 115.22 130.39
  Q 115.89 130.53 116.12 129.88
  L 116.60 128.51
  Z"
/>
<path fill="#ffb731" d="
  M 46.01 131.28
  L 46.80 123.32
  C 58.71 122.48 72.32 123.68 83.50 128.32
  A 0.27 0.27 0.0 0 1 83.38 128.83
  Q 64.96 127.40 46.01 131.28
  Z"
/>
<path fill="#ff8878" d="
  M 116.60 128.51
  L 116.12 129.88
  Q 115.89 130.53 115.22 130.39
  C 112.14 129.77 109.23 125.08 114.05 123.96
  C 118.14 123.02 130.65 121.62 133.14 125.76
  A 1.40 1.37 36.4 0 1 133.31 126.80
  Q 132.69 129.56 129.72 130.41
  A 0.74 0.74 0.0 0 1 128.88 130.09
  Q 128.57 129.60 128.48 129.03
  A 1.35 1.35 0.0 0 0 126.01 128.51
  Q 124.75 130.44 127.04 131.74
  A 1.09 1.08 -56.6 0 1 127.36 133.34
  Q 123.39 138.59 118.08 134.42
  A 1.90 1.89 49.1 0 1 118.30 131.29
  C 119.78 130.43 119.98 128.96 118.50 127.91
  A 1.24 1.24 0.0 0 0 116.60 128.51
  Z"
/>
<path fill="#ff7300" d="
  M 46.80 123.32
  L 46.01 131.28
  L 36.39 134.57
  A 0.17 0.16 -4.6 0 1 36.17 134.39
  L 37.53 124.43
  A 0.35 0.34 0.9 0 1 37.85 124.13
  L 46.80 123.32
  Z"
/>
<path fill="#903b02" d="
  M 30.25 136.73
  L 30.97 126.31
  A 0.56 0.56 0.0 0 1 31.37 125.81
  L 34.88 124.75
  A 0.56 0.56 0.0 0 1 35.60 125.34
  L 34.63 135.29
  A 0.56 0.56 0.0 0 1 34.31 135.75
  L 31.04 137.28
  A 0.56 0.56 0.0 0 1 30.25 136.73
  Z"
/>
<path fill="#903b02" d="
  M 200.58 135.22
  L 199.72 126.71
  A 0.52 0.52 0.0 0 1 200.26 126.14
  L 205.07 126.32
  A 0.52 0.52 0.0 0 1 205.56 126.78
  L 206.78 136.68
  A 0.52 0.52 0.0 0 1 206.11 137.24
  L 200.94 135.66
  A 0.52 0.52 0.0 0 1 200.58 135.22
  Z"
/>
<path fill="#ff7300" d="
  M 195.03 126.14
  L 197.30 126.29
  Q 197.88 126.33 197.95 126.92
  L 198.87 134.47
  A 0.45 0.45 0.0 0 1 198.30 134.96
  L 196.14 134.37
  Q 194.71 130.43 195.03 126.14
  Z"
/>
<path fill="#3dffff" d="
  M 46.66 133.02
  L 48.00 139.12
  L 43.14 140.87
  Q 42.55 141.08 42.69 140.48
  L 44.05 134.42
  Q 44.17 133.89 44.68 133.71
  L 46.66 133.02
  Z"
/>
<path fill="#ffb731" d="
  M 93.42 133.70
  Q 93.53 134.03 93.49 134.38
  Q 93.47 134.67 93.22 134.96
  Q 91.55 136.92 89.44 137.54
  Q 84.52 138.98 79.29 140.47
  Q 68.92 143.41 58.87 149.44
  Q 55.60 151.40 52.23 153.34
  L 48.51 141.01
  Q 70.00 133.98 92.70 134.18
  Q 93.03 134.19 93.24 133.93
  L 93.42 133.70
  Z"
/>
<path fill="#3dffff" d="
  M 42.10 135.17
  L 40.48 141.82
  A 0.45 0.45 0.0 0 1 40.22 142.13
  L 36.47 143.75
  A 0.45 0.45 0.0 0 1 35.84 143.32
  L 35.94 137.14
  A 0.45 0.45 0.0 0 1 36.22 136.73
  L 41.50 134.65
  A 0.45 0.45 0.0 0 1 42.10 135.17
  Z"
/>
<path fill="#3dffff" d="
  M 196.29 136.30
  L 198.32 136.87
  Q 198.81 137.01 198.84 137.53
  Q 199.52 152.56 197.94 168.35
  A 0.49 0.48 7.3 0 1 197.38 168.78
  L 188.47 167.27
  L 192.59 155.50
  L 196.29 136.30
  Z"
/>
<path fill="#903b02" d="
  M 34.42 155.17
  C 35.65 171.62 40.53 187.52 49.77 200.72
  Q 56.33 210.10 65.53 213.25
  Q 79.70 218.09 93.00 218.87
  C 107.00 219.70 120.50 220.89 134.27 220.01
  C 136.54 219.87 138.59 220.20 140.81 219.73
  Q 142.68 219.33 144.72 219.42
  Q 159.98 220.06 175.93 216.53
  Q 181.76 215.23 185.20 211.32
  Q 190.89 204.86 193.91 195.77
  C 199.90 177.78 201.62 157.48 200.89 138.15
  Q 200.87 137.38 201.60 137.60
  L 205.98 138.90
  Q 206.66 139.10 206.71 139.82
  Q 207.39 151.60 206.93 157.00
  Q 206.23 165.24 205.56 173.49
  Q 205.31 176.58 203.36 186.62
  Q 201.13 198.10 195.37 209.99
  Q 192.31 216.28 187.24 217.88
  Q 178.05 220.80 167.85 222.01
  C 160.18 222.93 152.66 223.85 145.00 224.14
  Q 122.79 224.99 102.58 223.90
  Q 85.49 222.98 70.11 219.12
  C 60.95 216.83 53.74 211.72 47.85 204.06
  Q 37.59 190.71 33.74 174.55
  C 31.80 166.38 30.32 158.24 30.38 150.30
  Q 30.39 149.18 31.33 148.58
  L 33.05 147.49
  Q 33.93 146.93 33.98 147.97
  Q 34.15 151.52 34.42 155.17
  Z"
/>
<path fill="#903b02" d="
  M 33.97 138.27
  L 34.07 144.94
  A 0.53 0.53 0.0 0 1 33.78 145.42
  L 30.72 146.97
  A 0.53 0.53 0.0 0 1 29.95 146.48
  L 30.14 140.02
  A 0.53 0.53 0.0 0 1 30.39 139.59
  L 33.16 137.83
  A 0.53 0.53 0.0 0 1 33.97 138.27
  Z"
/>
<path fill="#3dffff" d="
  M 48.51 141.01
  L 52.23 153.34
  C 53.13 155.13 54.85 157.21 54.52 159.35
  Q 45.35 157.46 37.41 152.59
  Q 35.65 151.51 35.73 148.92
  Q 35.77 147.84 35.75 146.87
  Q 35.74 146.23 36.33 145.98
  L 48.51 141.01
  Z"
/>
<path fill="#ff7300" d="
  M 71.75 165.02
  Q 72.76 178.02 76.25 189.90
  A 1.93 1.91 86.7 0 0 77.74 191.24
  C 102.72 195.82 124.67 198.70 152.97 202.20
  C 154.89 202.43 156.82 202.39 158.79 202.36
  A 0.94 0.94 0.0 0 0 159.67 201.71
  Q 160.42 199.49 161.25 196.97
  C 161.81 195.26 161.62 193.58 162.32 191.92
  Q 163.05 190.18 163.09 188.45
  C 163.17 185.62 163.86 183.03 163.85 180.19
  Q 163.81 173.89 163.67 167.49
  L 184.78 169.12
  Q 187.25 169.74 186.69 172.04
  Q 186.50 172.79 186.38 173.51
  Q 182.94 194.11 174.90 213.45
  Q 174.46 214.51 173.44 214.74
  Q 172.81 214.88 173.42 215.09
  Q 173.91 215.25 174.72 215.09
  C 163.68 217.61 153.28 217.83 141.38 218.43
  C 123.18 219.35 105.31 218.73 87.42 216.53
  Q 79.79 215.59 71.45 213.35
  Q 61.61 210.71 56.78 206.18
  C 53.19 202.82 50.22 198.54 47.72 194.28
  Q 37.42 176.67 35.94 154.52
  Q 35.90 154.03 36.32 154.30
  Q 42.91 158.50 50.73 160.61
  Q 61.74 163.58 71.75 165.02
  Z"
/>
<path fill="#ffb731" d="
  M 81.96 159.79
  Q 81.21 159.94 80.84 160.61
  Q 80.22 161.77 79.48 162.85
  Q 78.62 164.10 78.52 162.59
  Q 78.11 156.88 83.56 155.40
  C 91.58 153.21 92.97 166.48 85.73 167.73
  Q 84.01 168.02 84.44 166.36
  Q 84.83 164.89 85.75 163.23
  Q 85.93 162.90 85.56 162.78
  L 85.19 162.67
  A 0.70 0.69 -63.7 0 0 84.43 162.93
  Q 83.21 164.57 82.65 166.55
  Q 82.50 167.10 81.96 166.88
  Q 81.07 166.49 80.62 165.56
  A 1.96 1.94 51.0 0 1 80.82 163.52
  Q 82.01 161.96 82.48 160.37
  Q 82.70 159.65 81.96 159.79
  Z"
/>
<path fill="#ffdd00" d="
  M 71.75 165.02
  L 77.75 165.87
  Q 78.26 165.94 78.58 166.36
  C 81.82 170.53 88.36 171.68 91.12 166.09
  Q 91.61 165.10 92.71 165.21
  Q 108.85 166.75 125.75 167.00
  Q 144.23 167.27 163.67 167.49
  Q 163.81 173.89 163.85 180.19
  C 163.86 183.03 163.17 185.62 163.09 188.45
  Q 163.05 190.18 162.32 191.92
  C 161.62 193.58 161.81 195.26 161.25 196.97
  Q 160.42 199.49 159.67 201.71
  A 0.94 0.94 0.0 0 1 158.79 202.36
  C 156.82 202.39 154.89 202.43 152.97 202.20
  C 124.67 198.70 102.72 195.82 77.74 191.24
  A 1.93 1.91 86.7 0 1 76.25 189.90
  Q 72.76 178.02 71.75 165.02
  Z"
/>
<path fill="#ff5e00" d="
  M 184.78 169.12
  L 197.28 170.69
  Q 197.80 170.76 197.73 171.28
  C 196.27 181.28 194.32 190.78 190.37 200.18
  C 189.21 202.95 187.70 205.06 186.14 207.52
  C 183.64 211.46 179.24 214.08 174.72 215.09
  Q 173.91 215.25 173.42 215.09
  Q 172.81 214.88 173.44 214.74
  Q 174.46 214.51 174.90 213.45
  Q 182.94 194.11 186.38 173.51
  Q 186.50 172.79 186.69 172.04
  Q 187.25 169.74 184.78 169.12
  Z"
/>
<path fill="#e88c27" d="
  M 47.22 209.41
  Q 55.94 219.34 69.25 222.44
  C 73.89 223.52 78.56 224.58 83.30 225.15
  Q 118.30 229.35 153.49 226.84
  Q 168.88 225.74 184.00 222.78
  Q 198.67 219.90 207.91 209.58
  Q 214.34 210.67 218.88 213.86
  C 219.96 214.62 220.73 216.11 219.85 217.35
  C 217.73 220.36 211.48 222.31 207.82 223.34
  Q 199.09 225.82 189.96 227.20
  C 159.94 231.77 128.18 232.64 96.34 230.78
  Q 73.44 229.45 50.88 224.08
  C 45.69 222.85 39.87 221.07 35.87 217.35
  A 1.58 1.58 0.0 0 1 35.64 215.31
  Q 37.05 213.23 39.61 212.10
  Q 43.14 210.54 47.22 209.41
  Z"
/>
</svg>
