<svg xmlns="http://www.w3.org/2000/svg" width="16" height="16" viewBox="0 0 16 16">
    <path fill-rule="evenodd"
          d="M11.949 2.578L13.527 1A1.041 1.041 0 1115 2.473L2.473 15A1.041 1.041 0 111 13.527l1.409-1.409C.823 10.566 0 8.707 0 8c0-1.302 2.698-6.512 8-6.512 1.536 0 2.853.437 3.949 1.09zm2.573 2.314C15.505 6.167 16 7.442 16 8c0 1.302-2.791 6.512-8 6.512a7.452 7.452 0 01-2.626-.472l2.331-2.331a3.731 3.731 0 004.004-4.004l2.813-2.813zm-4.735-.153A3.688 3.688 0 008 4.279 3.731 3.731 0 004.279 8c0 .647.167 1.256.46 1.787l1.319-1.318A1.931 1.931 0 016 8c0-1.143.857-2 2-2 .163 0 .321.019.471.056l1.316-1.317z">
    </path>
</svg>
