<svg width="16" height="16" viewBox="0 0 16 16" fill="none" xmlns="http://www.w3.org/2000/svg">
<g id="Search">
<path id="Path" d="M14.501 13.3762L10.6235 9.49809C11.2483 8.63938 11.5845 7.60447 11.5835 6.54247C11.5835 3.76278 9.32191 1.50122 6.54222 1.50122C3.76254 1.50122 1.50098 3.76278 1.50098 6.54247C1.50098 9.32215 3.76254 11.5837 6.54222 11.5837C7.60423 11.5847 8.63914 11.2486 9.49785 10.6237L13.376 14.5012L14.501 13.3762ZM6.54222 9.99153C5.85998 9.99159 5.19303 9.78933 4.62574 9.41034C4.05844 9.03134 3.61628 8.49262 3.35517 7.86232C3.09405 7.23201 3.02572 6.53843 3.1588 5.86929C3.29189 5.20015 3.62041 4.5855 4.10284 4.10308C4.58526 3.62066 5.19991 3.29213 5.86905 3.15905C6.53819 3.02596 7.23177 3.0943 7.86207 3.35541C8.49238 3.61652 9.03109 4.05869 9.41009 4.62598C9.78909 5.19328 9.99135 5.86022 9.99128 6.54247C9.99021 7.45689 9.62648 8.33354 8.97989 8.98013C8.3333 9.62673 7.45664 9.99045 6.54222 9.99153Z" fill="#333437"/>
</g>
</svg>
