<svg width="810" height="981" viewBox="0 0 810 981" fill="none" xmlns="http://www.w3.org/2000/svg">
<mask id="mask0_222_2751" style="mask-type:alpha" maskUnits="userSpaceOnUse" x="0" y="0" width="810" height="981">
<rect width="810" height="981" fill="#D9D9D9"/>
</mask>
<g mask="url(#mask0_222_2751)">
<rect width="810" height="981" fill="#687BB3"/>
<path fill-rule="evenodd" clip-rule="evenodd" d="M635.183 -105.329C701.639 -117.256 760.52 -63.0773 807.718 -14.7965C854.269 32.8225 898.63 91.4428 892.349 157.738C886.371 220.846 830.486 265.079 777.857 300.412C735.913 328.57 685.568 326.713 635.183 330.386C578.06 334.551 516.863 355.88 470.071 322.851C418.195 286.233 380.678 220.457 390.595 157.738C399.957 98.5328 474.343 81.6114 515.157 37.7128C559.216 -9.67467 571.496 -93.898 635.183 -105.329Z" fill="#274292"/>
<path fill-rule="evenodd" clip-rule="evenodd" d="M495.006 539.596C611.471 487.001 713.35 392.317 840.005 409.311C988.633 429.254 1143.18 500.659 1209.01 635.4C1274.57 769.608 1217.14 925.749 1159.66 1063.61C1107.22 1189.36 1026.91 1301.87 905.418 1363.52C783.024 1425.63 645.337 1418.37 510.441 1393.06C345.591 1362.12 144.62 1352.84 64.1559 1205.67C-17.1052 1057.05 52.3375 865.696 144.336 723.471C218.857 608.265 369.959 596.067 495.006 539.596Z" fill="#274292"/>
<path fill-rule="evenodd" clip-rule="evenodd" d="M15.3737 252.736C71.7519 254.383 133.63 239.888 176.368 276.694C220.935 315.076 235.47 379.114 230.133 437.688C225.212 491.692 189.683 535.403 149.479 571.793C111.705 605.983 66.2057 628.623 15.3737 632.072C-39.5763 635.8 -98.5413 629.477 -138.252 591.313C-178.512 552.621 -183.954 493.45 -186.887 437.688C-190.047 377.622 -199.7 307.594 -155.311 267.003C-111.51 226.951 -43.9533 251.002 15.3737 252.736Z" fill="#274292"/>
<path fill-rule="evenodd" clip-rule="evenodd" d="M719.811 178.501C748.858 179.349 780.738 171.881 802.758 190.844C825.719 210.619 833.208 243.613 830.458 273.791C827.923 301.614 809.618 324.135 788.904 342.883C769.442 360.498 746.001 372.163 719.811 373.94C691.5 375.86 661.121 372.603 640.661 352.941C619.919 333.006 617.115 302.52 615.604 273.791C613.976 242.844 609.002 206.764 631.872 185.852C654.439 165.216 689.245 177.608 719.811 178.501Z" fill="#274292"/>
<path fill-rule="evenodd" clip-rule="evenodd" d="M280.307 -23.9417C307.222 -46.5969 342.623 -51.6073 377.797 -52.2766C409.998 -52.8894 443.821 -49.4652 467.377 -27.5016C490.085 -6.32853 489.217 27.1533 495.577 57.5424C503.477 95.2891 527.691 134.757 508.316 168.101C487.574 203.799 442.355 218.04 401.12 220.108C361.251 222.108 325.28 203.102 293.554 178.875C259.751 153.062 221.992 123.646 219.22 81.2048C216.474 39.1561 248.069 3.19431 280.307 -23.9417Z" fill="#274292"/>
<path fill-rule="evenodd" clip-rule="evenodd" d="M76.3073 698.058C103.222 675.403 138.623 670.393 173.797 669.723C205.998 669.111 239.821 672.535 263.377 694.499C286.085 715.672 285.217 749.153 291.577 779.543C299.477 817.289 323.691 856.757 304.316 890.101C283.574 925.8 238.355 940.04 197.12 942.109C157.251 944.109 121.28 925.102 89.5541 900.875C55.7509 875.062 17.9921 845.647 15.2201 803.205C12.4737 761.156 44.0695 725.194 76.3073 698.058Z" fill="#274292"/>
</g>
</svg>
